<?xml version="1.0" standalone="no"?>
<!DOCTYPE svg PUBLIC "-//W3C//DTD SVG 1.1//EN" "http://www.w3.org/Graphics/SVG/1.1/DTD/svg11.dtd" >
<svg xmlns="http://www.w3.org/2000/svg">
<metadata></metadata>
<defs>
<font id="OpenSansSemiboldItalic" horiz-adv-x="1128" >
<font-face units-per-em="2048" ascent="1638" descent="-410" />
<missing-glyph horiz-adv-x="532" />
<glyph horiz-adv-x="0" />
<glyph horiz-adv-x="2048" />
<glyph unicode="&#xd;" horiz-adv-x="1044" />
<glyph unicode=" "  horiz-adv-x="532" />
<glyph unicode="&#x09;" horiz-adv-x="532" />
<glyph unicode="&#xa0;" horiz-adv-x="532" />
<glyph unicode="!" horiz-adv-x="557" d="M33 108q0 68 45.5 118t116.5 50q139 0 139 -126q0 -79 -47 -128t-116 -49t-103.5 33.5t-34.5 101.5zM160 444l168 1018h272l-264 -1018h-176z" />
<glyph unicode="&#x22;" horiz-adv-x="858" d="M213 934l72 528h231l-151 -528h-152zM588 934l74 528h231l-152 -528h-153z" />
<glyph unicode="#" horiz-adv-x="1323" d="M51 418l17 168h280l84 286h-264l16 168h295l121 422h178l-121 -422h252l121 422h174l-121 -422h252l-14 -168h-285l-84 -286h271l-15 -168h-303l-121 -418h-180l123 418h-248l-121 -418h-174l117 418h-250zM526 586h250l82 286h-250z" />
<glyph unicode="$" d="M61 172v209q78 -42 179.5 -70t193.5 -30l84 387q-156 56 -223.5 138.5t-67.5 199.5q0 167 118.5 267.5t324.5 117.5l37 163h135l-35 -165q161 -16 289 -82l-86 -185q-134 66 -244 74l-80 -371q128 -51 186 -95q115 -86 115 -247t-119.5 -266t-337.5 -125l-45 -211h-135 l45 211q-197 13 -334 80zM451 1016q0 -98 110 -139l68 319q-178 -22 -178 -180zM571 285q86 11 136.5 60t50.5 126q0 101 -115 145z" />
<glyph unicode="%" horiz-adv-x="1688" d="M141 880.5q0 157.5 53 305.5q107 297 351 297q260 0 260 -305q0 -152 -55.5 -305.5t-146.5 -230.5t-210.5 -77t-185.5 79t-66 236.5zM231 0l1086 1462h194l-1085 -1462h-195zM334 866q0 -135 80 -135q110 0 168 233q30 118 30 220q0 131 -82 131q-55 0 -99 -61 t-70.5 -173t-26.5 -215zM940 291.5q0 158.5 53 307.5q106 298 350 298q127 0 195 -75t68 -227t-55.5 -306.5t-146.5 -231.5t-211 -77t-186.5 76.5t-66.5 235zM1133 281q0 -134 81 -134q52 0 96 58.5t73.5 174.5t29.5 220q0 131 -84 131q-52 0 -95.5 -57.5t-72 -171 t-28.5 -221.5z" />
<glyph unicode="&#x26;" horiz-adv-x="1411" d="M66 336q0 161 85.5 268t286.5 205q-88 151 -88 283q0 180 112.5 286.5t285 106.5t264.5 -81t92 -214t-89.5 -234t-293.5 -192l235 -326q109 112 181 295h233q-113 -270 -297 -454l205 -279h-277l-94 131q-200 -151 -440 -151q-190 0 -295.5 97.5t-105.5 258.5zM305 371 q0 -86 56 -140.5t140 -54.5q151 0 298 109l-264 381q-133 -74 -181.5 -141.5t-48.5 -153.5zM567 1091.5q0 -98.5 62 -190.5q147 75 199.5 133.5t52.5 126.5q0 137 -146 137q-74 0 -121 -54t-47 -152.5z" />
<glyph unicode="'" horiz-adv-x="483" d="M213 934l72 528h231l-151 -528h-152z" />
<glyph unicode="(" horiz-adv-x="639" d="M78 278q0 341 124.5 630.5t379.5 553.5h209q-498 -548 -498 -1190q0 -329 115 -596h-183q-147 261 -147 602z" />
<glyph unicode=")" horiz-adv-x="639" d="M-154 -324q498 548 498 1190q0 327 -115 596h183q147 -265 147 -604.5t-123 -627t-381 -554.5h-209z" />
<glyph unicode="*" horiz-adv-x="1122" d="M193 1167l71 195l354 -178l37 383l213 -43l-116 -367l403 23l-12 -205l-367 45l170 -361l-205 -61l-102 371l-227 -312l-162 144l293 266z" />
<glyph unicode="+" d="M117 631v180h379v381h180v-381h377v-180h-377v-375h-180v375h-379z" />
<glyph unicode="," horiz-adv-x="530" d="M-102 -264q105 238 200 502h236l8 -23q-125 -260 -266 -479h-178z" />
<glyph unicode="-" horiz-adv-x="649" d="M47 446l45 203h502l-45 -203h-502z" />
<glyph unicode="." horiz-adv-x="551" d="M33 110q0 67 47 116.5t117 49.5q137 0 137 -124q0 -78 -47.5 -129.5t-124.5 -51.5q-129 0 -129 139z" />
<glyph unicode="/" horiz-adv-x="788" d="M-92 0l811 1462h233l-811 -1462h-233z" />
<glyph unicode="0" d="M92 495q0 260 83 502t222.5 365t324 123t281.5 -118.5t97 -354.5q0 -306 -79 -546.5t-219 -363t-329.5 -122.5t-285 127.5t-95.5 387.5zM330 494.5q0 -168.5 39 -243.5t134 -75t177.5 113.5t132 316.5t49.5 414q0 268 -162 268q-97 0 -180 -112t-136.5 -312.5t-53.5 -369 z" />
<glyph unicode="1" d="M242 1145l508 317h198l-311 -1462h-238l189 870q28 150 82 324q-57 -55 -135 -102l-187 -117z" />
<glyph unicode="2" d="M-18 0l36 180l471 422q176 159 238.5 231t90.5 133.5t28 139t-49.5 127t-129.5 49.5t-149 -30t-170 -109l-115 160q223 180 459 180q181 0 288 -93t107 -251q0 -108 -39 -201t-123 -190.5t-284 -268.5l-311 -264v-8h622l-41 -207h-929z" />
<glyph unicode="3" d="M31 59v215q175 -102 356.5 -102t269.5 71.5t88 196.5q0 219 -278 219h-133l37 183h106q164 0 267.5 74.5t103.5 199.5q0 79 -49.5 124.5t-139.5 45.5q-145 0 -309 -110l-104 161q120 81 225.5 113.5t226.5 32.5q183 0 286 -88.5t103 -244t-99 -261.5t-269 -137v-7 q127 -24 196.5 -106t69.5 -210t-68 -231.5t-196.5 -160.5t-329 -57t-360.5 79z" />
<glyph unicode="4" d="M-4 317l37 197l803 952h254l-201 -952h201l-43 -197h-201l-68 -317h-229l69 317h-622zM262 514h397l68 309q31 136 100 377h-8q-51 -86 -135 -186z" />
<glyph unicode="5" d="M53 59v217q167 -100 341 -100t271 83t97 230q0 105 -62 168.5t-172.5 63.5t-240.5 -35l-88 68l200 708h713l-45 -209h-506l-106 -364q93 18 155 18q181 0 288.5 -103.5t107.5 -275t-70 -293.5t-204 -188.5t-336 -66.5t-343 79z" />
<glyph unicode="6" d="M111 435.5q0 215.5 60.5 416.5t164.5 343q212 288 594 288q117 0 203 -25l-43 -194q-72 22 -181 22q-405 0 -534 -522h6q125 170 326 170q156 0 243.5 -99t87.5 -266.5t-68.5 -306.5t-185.5 -210.5t-270 -71.5q-194 0 -298.5 120t-104.5 335.5zM340 418q0 -110 49.5 -177 t135.5 -67t148 48.5t96 134.5t34 188q0 200 -178 200q-95 0 -175 -67q-115 -97 -110 -260z" />
<glyph unicode="7" d="M125 0l754 1257h-674l43 205h932l-33 -168l-758 -1294h-264z" />
<glyph unicode="8" d="M76 348q0 297 368 432q-170 131 -170 308.5t127 287t318 109.5t295 -89t104 -239q0 -265 -327 -393q120 -78 172.5 -165.5t52.5 -205t-61.5 -213t-175.5 -148t-271 -52.5q-203 0 -317.5 100t-114.5 268zM311 374.5q0 -98.5 59 -154.5t166 -56t176.5 64t69.5 161 t-48.5 163.5t-139.5 119.5q-149 -54 -216 -126.5t-67 -171zM504 1100.5q0 -87.5 39 -141.5t104 -93q115 43 177.5 105t62.5 150t-48 133.5t-134.5 45.5t-143.5 -56t-57 -143.5z" />
<glyph unicode="9" d="M92 12v207q121 -43 236 -43q188 0 306 123t177 389h-6q-113 -160 -291.5 -160t-269 102t-90.5 273t67 304t186.5 204.5t274.5 71.5q192 0 294.5 -119.5t102.5 -335t-58 -425t-153 -349.5q-185 -274 -536 -274q-133 0 -240 32zM387 927.5q0 -100.5 46 -155.5t148.5 -55 t183.5 94t81 221t-48 191.5t-132 64.5t-147.5 -47t-97.5 -130t-34 -183.5z" />
<glyph unicode=":" horiz-adv-x="551" d="M33 110q0 67 47 116.5t117 49.5q137 0 137 -124q0 -78 -47.5 -129.5t-124.5 -51.5q-129 0 -129 139zM205 964q0 67 47 116.5t117 49.5q137 0 137 -124q0 -79 -48.5 -130t-125.5 -51q-127 0 -127 139z" />
<glyph unicode=";" horiz-adv-x="551" d="M-100 -264q95 214 198 502h236l8 -23q-125 -260 -266 -479h-176zM205 964q0 67 47 116.5t117 49.5q137 0 137 -124q0 -79 -48.5 -130t-125.5 -51q-127 0 -127 139z" />
<glyph unicode="&#x3c;" d="M115 651v121l936 488v-195l-697 -344l697 -303v-197z" />
<glyph unicode="=" d="M117 430v180h936v-180h-936zM117 831v179h936v-179h-936z" />
<glyph unicode="&#x3e;" d="M115 221v197l694 303l-694 344v195l936 -488v-121z" />
<glyph unicode="?" horiz-adv-x="907" d="M162 110q0 67 47 116.5t117 49.5q137 0 137 -124q0 -79 -49 -129t-125 -50q-127 0 -127 137zM186 1370q207 113 394 113t285 -85.5t98 -242.5q0 -120 -63.5 -217.5t-231.5 -216.5q-104 -74 -150 -133t-61 -144h-197q18 133 71.5 220.5t168.5 171t154 123.5q77 77 77 158 t-42.5 125t-121.5 44t-152 -27.5t-151 -64.5z" />
<glyph unicode="@" horiz-adv-x="1743" d="M100 502q0 270 122.5 489t343 344t493.5 125q200 0 346 -74.5t223.5 -214.5t77.5 -320.5t-59.5 -327t-166.5 -229.5t-222 -83q-205 0 -232 166h-6q-101 -166 -277 -166q-123 0 -189.5 78.5t-66.5 224t67.5 274t188 203t263.5 74.5q91 0 151 -13t152 -44l-101 -392 q-30 -114 -30 -159q0 -92 79 -92q72 0 134 66.5t97.5 174.5t35.5 230q0 228 -128.5 347.5t-353 119.5t-395.5 -99.5t-266.5 -281.5t-95.5 -423.5t140.5 -383.5t391.5 -142q200 0 430 86v-155q-219 -90 -441.5 -90t-379.5 83.5t-241.5 239.5t-84.5 365zM676 522 q0 -157 112 -157q161 0 242 292l64 240q-53 16 -122 16t-141.5 -53.5t-113.5 -144t-41 -193.5z" />
<glyph unicode="A" horiz-adv-x="1210" d="M-121 0l783 1464h274l166 -1464h-234l-41 406h-485l-209 -406h-254zM446 614h365q-51 530 -51 643q-55 -139 -142 -307z" />
<glyph unicode="B" horiz-adv-x="1247" d="M70 0l309 1462h399q222 0 335.5 -84t113.5 -239t-86.5 -252t-239.5 -127v-8q108 -28 167.5 -103.5t59.5 -183.5q0 -217 -150 -341t-417 -124h-491zM348 201h223q147 0 230.5 68t83.5 180t-60 163.5t-176 51.5h-200zM489 858h199q139 0 215 60.5t76 171.5q0 172 -223 172 h-181z" />
<glyph unicode="C" horiz-adv-x="1225" d="M135 541q0 264 105.5 487t281.5 339t397.5 116t393.5 -92l-94 -195q-152 82 -300.5 82t-269.5 -89t-193.5 -259.5t-72.5 -362.5q0 -383 326 -383q141 0 329 68v-205q-180 -67 -374 -67q-248 0 -388.5 148.5t-140.5 412.5z" />
<glyph unicode="D" horiz-adv-x="1374" d="M70 0l309 1462h369q271 0 417 -145t146 -420t-100 -477t-291 -311t-449 -109h-401zM348 201h135q177 0 309 86t202.5 242t70.5 348t-88 288.5t-256 96.5h-146z" />
<glyph unicode="E" horiz-adv-x="1077" d="M70 0l309 1462h776l-43 -205h-539l-84 -395h502l-41 -203h-504l-96 -456h539l-43 -203h-776z" />
<glyph unicode="F" horiz-adv-x="1026" d="M70 0l309 1462h774l-43 -205h-537l-96 -454h502l-45 -203h-500l-127 -600h-237z" />
<glyph unicode="G" horiz-adv-x="1399" d="M135 537.5q0 265.5 102.5 484.5t290 340t426.5 121q229 0 418 -90l-90 -203q-174 86 -333 86t-288 -90.5t-203.5 -258t-74.5 -361.5t89 -288t253 -94q109 0 215 33l80 371h-277l43 205h512l-157 -736q-216 -77 -467 -77t-395 146t-144 411.5z" />
<glyph unicode="H" horiz-adv-x="1411" d="M70 0l309 1462h237l-127 -598h566l127 598h237l-309 -1462h-238l140 659h-566l-139 -659h-237z" />
<glyph unicode="I" horiz-adv-x="608" d="M70 0l311 1462h235l-311 -1462h-235z" />
<glyph unicode="J" horiz-adv-x="612" d="M-322 -383l5 201q84 -21 153 -21q201 0 254 250l299 1415h238l-305 -1446q-46 -217 -161.5 -320.5t-312.5 -103.5q-104 0 -170 25z" />
<glyph unicode="K" horiz-adv-x="1198" d="M70 0l309 1462h237l-151 -706l141 166l492 540h284l-616 -669l321 -793h-262l-252 655l-149 -100l-117 -555h-237z" />
<glyph unicode="L" horiz-adv-x="1016" d="M70 0l309 1462h237l-266 -1257h539l-43 -205h-776z" />
<glyph unicode="M" horiz-adv-x="1757" d="M68 0l309 1462h323l109 -1149h6l606 1149h344l-305 -1462h-227l182 872q39 186 86 342h-6l-643 -1214h-205l-115 1214h-6q-9 -118 -55 -340l-184 -874h-219z" />
<glyph unicode="N" horiz-adv-x="1491" d="M68 0l309 1462h268l399 -1149h7q6 54 31 192.5t40 203.5l160 753h219l-309 -1462h-260l-410 1163h-6l-10 -69q-24 -149 -35.5 -212.5t-183.5 -881.5h-219z" />
<glyph unicode="O" horiz-adv-x="1485" d="M135 544.5q0 265.5 98.5 486t269.5 337.5t405 117t373.5 -149t139.5 -421t-95 -490t-261.5 -331.5t-406 -113.5t-381.5 149.5t-142 415zM383 559.5q0 -187.5 81.5 -281.5t223.5 -94t252.5 95.5t172 265t61.5 357.5t-79 283t-220 95t-253 -96t-175.5 -266.5t-63.5 -358z " />
<glyph unicode="P" horiz-adv-x="1174" d="M70 0l309 1462h334q461 0 461 -401q0 -248 -169.5 -381t-472.5 -133h-110l-115 -547h-237zM465 748h94q178 0 275.5 79.5t97.5 225.5q0 109 -58.5 159t-179.5 50h-119z" />
<glyph unicode="Q" horiz-adv-x="1485" d="M135 544.5q0 265.5 98.5 486t269.5 337.5t405 117t373.5 -149t139.5 -414q0 -322 -130 -563t-355 -332l264 -375h-289l-202 328h-31q-259 0 -401 149.5t-142 415zM383 559.5q0 -187.5 81.5 -281.5t223.5 -94t252.5 94t172 263.5t61.5 359t-79 284.5t-220 95t-253 -96 t-175.5 -266.5t-63.5 -358z" />
<glyph unicode="R" horiz-adv-x="1206" d="M70 0l309 1462h338q461 0 461 -385q0 -165 -86.5 -278.5t-257.5 -165.5l249 -633h-260l-207 584h-186l-123 -584h-237zM473 782h123q170 0 254 75t84 193t-59 164t-183 46h-119z" />
<glyph unicode="S" horiz-adv-x="1057" d="M39 55v224q173 -97 330 -97t236 58.5t79 162.5q0 69 -41 122.5t-159 128.5t-168 130q-103 113 -103 253t61.5 239t174 153t253.5 54q205 0 381 -92l-86 -191q-161 78 -282.5 78t-187.5 -58.5t-66 -152.5q0 -89 61 -149q32 -30 161 -111t188 -171.5t59 -207.5 q0 -210 -144.5 -329t-376.5 -119t-370 75z" />
<glyph unicode="T" horiz-adv-x="1053" d="M176 1257l45 205h998l-43 -205h-381l-267 -1257h-237l264 1257h-379z" />
<glyph unicode="U" horiz-adv-x="1399" d="M152 391q0 83 20 170l193 901h237l-192 -905q-21 -88 -21 -174t59.5 -142.5t192.5 -56.5t218 80.5t124 261.5l199 936h237l-202 -956q-56 -267 -208 -396.5t-386 -129.5t-352.5 106t-118.5 305z" />
<glyph unicode="V" horiz-adv-x="1165" d="M186 1462h232l74 -905q9 -103 11 -233l-1 -76h4q70 178 137 309l455 905h254l-764 -1462h-258z" />
<glyph unicode="W" horiz-adv-x="1788" d="M203 1462h229l19 -850q0 -136 -13 -346h6q83 221 142 355l387 841h225l31 -839l3 -169l-3 -188h8q61 191 131 350l358 846h246l-655 -1462h-258l-37 842l-6 185l4 106h-6q-47 -144 -117 -291l-385 -842h-256z" />
<glyph unicode="X" horiz-adv-x="1151" d="M-111 0l586 770l-250 692h246l178 -540l402 540h266l-551 -710l274 -752h-256l-192 592l-438 -592h-265z" />
<glyph unicode="Y" horiz-adv-x="1092" d="M186 1462h242l154 -669l432 669h266l-623 -913l-114 -549h-238l119 553z" />
<glyph unicode="Z" horiz-adv-x="1092" d="M-39 0l33 168l850 1087h-598l43 207h897l-35 -172l-852 -1085h645l-43 -205h-940z" />
<glyph unicode="[" horiz-adv-x="631" d="M-27 -324l381 1786h430l-39 -176h-221l-303 -1433h221l-39 -177h-430z" />
<glyph unicode="\" horiz-adv-x="788" d="M221 1462h207l219 -1462h-209z" />
<glyph unicode="]" horiz-adv-x="631" d="M-143 -324l37 177h219l305 1433h-221l39 176h430l-381 -1786h-428z" />
<glyph unicode="^" horiz-adv-x="1069" d="M37 537l608 933h127l272 -933h-184l-188 690l-434 -690h-201z" />
<glyph unicode="_" horiz-adv-x="813" d="M-188 -324l30 140h817l-30 -140h-817z" />
<glyph unicode="`" horiz-adv-x="1135" d="M541 1548v21h245q47 -154 132 -303v-25h-144q-65 63 -132 151.5t-101 155.5z" />
<glyph unicode="a" horiz-adv-x="1186" d="M94 376q0 193 69.5 369t191.5 278.5t268 102.5q196 0 276 -178h10l62 158h180l-236 -1106h-182l21 176h-6q-158 -196 -349 -196q-141 0 -223 101.5t-82 294.5zM332 373q0 -203 158 -203q77 0 156 77.5t130 207.5t51 284q0 88 -47 141.5t-127.5 53.5t-155.5 -77 t-120 -209.5t-45 -274.5z" />
<glyph unicode="b" horiz-adv-x="1200" d="M47 0l330 1556h235l-71 -333q-31 -149 -78 -297h8q90 113 165 156.5t161 43.5q145 0 226 -103.5t81 -295.5t-69.5 -369.5t-190.5 -277.5t-266 -100q-197 0 -279 176h-10l-64 -156h-178zM369 395q0 -225 178 -225q85 0 159 78.5t117 210t43 274.5q0 201 -155 201 q-81 0 -162 -80t-130.5 -210.5t-49.5 -248.5z" />
<glyph unicode="c" horiz-adv-x="954" d="M94 394q0 202 73.5 371.5t206.5 265t299.5 95.5t299.5 -61l-70 -184q-122 53 -221 53q-150 0 -250 -153.5t-100 -379.5q0 -111 56 -171t162.5 -60t260.5 76v-195q-140 -71 -320.5 -71t-288.5 106t-108 308z" />
<glyph unicode="d" horiz-adv-x="1198" d="M94 378.5q0 195.5 71.5 373.5t191.5 276t266 98q179 0 268 -178h8q13 146 37 250l76 358h233l-330 -1556h-184l19 176h-7q-88 -106 -170 -151t-174 -45q-143 0 -224 101.5t-81 297zM332 373q0 -203 157 -203q82 0 162.5 82t129 214t48.5 245q0 223 -176 223 q-85 0 -159 -77t-118 -211t-44 -273z" />
<glyph unicode="e" horiz-adv-x="1075" d="M94 400.5q0 198.5 77.5 369t210 263.5t295 93t252 -72.5t89.5 -205.5q0 -182 -166.5 -284.5t-474.5 -102.5h-43l-2 -31v-29q0 -111 56.5 -174t179.5 -63t300 84v-187q-177 -81 -365 -81t-298.5 111t-110.5 309.5zM362 633h29q188 0 294 53.5t106 151.5q0 51 -32 79.5 t-95 28.5q-96 0 -180.5 -86t-121.5 -227z" />
<glyph unicode="f" horiz-adv-x="702" d="M-225 -279q64 -20 114 -20q134 0 177 205l217 1022h-179l21 106l194 76l21 92q44 198 134.5 281.5t256.5 83.5q115 0 211 -43l-61 -176q-74 28 -139.5 28t-107 -43t-63.5 -141l-18 -86h229l-37 -178h-229l-223 -1053q-40 -189 -131 -278t-238 -89q-90 0 -149 23v190z" />
<glyph unicode="g" horiz-adv-x="1067" d="M-121 -211q0 103 69.5 178t223.5 127q-76 45 -76 120.5t46.5 126t146.5 97.5q-135 81 -135 264.5t122.5 303.5t323.5 120q80 0 160 -20h383l-31 -137l-192 -33q28 -58 28 -137q0 -193 -119 -306.5t-319 -113.5q-52 0 -92 8q-111 -40 -111 -104q0 -38 31.5 -52t91.5 -22 l127 -16q176 -22 252 -87.5t76 -187.5q0 -196 -151 -303t-429 -107q-203 0 -314.5 75t-111.5 206zM92 -178q0 -148 225 -148q163 0 255 54t92 155q0 51 -45 80t-158 41l-137 14q-112 -18 -172 -71t-60 -125zM377 680q0 -71 35.5 -109.5t101 -38.5t113 39t74 107t26.5 149 q0 142 -133 142q-65 0 -114 -39q-103 -80 -103 -250z" />
<glyph unicode="h" horiz-adv-x="1208" d="M47 0l330 1556h235l-57 -262q-27 -126 -73 -293l-19 -75h8q158 200 346 200q136 0 208.5 -77.5t72.5 -221.5q0 -76 -23 -174l-139 -653h-234l142 672q18 90 18 127q0 135 -129 135q-112 0 -209.5 -125t-142.5 -342l-98 -467h-236z" />
<glyph unicode="i" horiz-adv-x="563" d="M47 0l236 1106h235l-235 -1106h-236zM330 1384q0 62 39 104t101 42q128 0 128 -107q0 -71 -40 -112t-105 -41q-123 0 -123 114z" />
<glyph unicode="j" horiz-adv-x="563" d="M-262 -279q64 -20 117 -20q131 0 170 186l260 1219h233l-266 -1247q-38 -181 -127.5 -266t-237.5 -85q-90 0 -149 23v190zM332 1378q0 68 38 110t100 42q128 0 128 -107q0 -71 -40 -112t-105 -41q-121 0 -121 108z" />
<glyph unicode="k" horiz-adv-x="1081" d="M47 0l330 1556h235q-135 -627 -159.5 -729.5t-59.5 -226.5h4l490 506h272l-483 -485l291 -621h-262l-209 471l-136 -96l-77 -375h-236z" />
<glyph unicode="l" horiz-adv-x="563" d="M47 0l330 1556h235l-331 -1556h-234z" />
<glyph unicode="m" horiz-adv-x="1819" d="M47 0l236 1106h184l-21 -205h9q148 225 360 225t246 -235h8q75 116 170.5 175.5t213.5 59.5t187.5 -76.5t69.5 -215.5q0 -64 -22 -181l-140 -653h-235l143 672q19 95 19 133q0 129 -121 129q-108 0 -201.5 -124t-136.5 -329l-101 -481h-235l143 672q17 82 17 127 q0 135 -117 135q-110 0 -203.5 -127t-138.5 -338l-98 -469h-236z" />
<glyph unicode="n" horiz-adv-x="1208" d="M47 0l236 1106h184l-21 -205h9q158 225 362 225q134 0 207.5 -76t73.5 -216q0 -69 -23 -181l-137 -653h-236l142 672q18 90 18 131q0 131 -129 131q-72 0 -142 -57t-126 -164.5t-84 -243.5l-98 -469h-236z" />
<glyph unicode="o" horiz-adv-x="1174" d="M94 409q0 198 71.5 364t200.5 258.5t311 92.5t292 -116t110 -317t-73 -366.5t-200.5 -254t-306.5 -88.5t-292 114.5t-113 312.5zM332 417q0 -243 196 -243q90 0 162 68t112 190.5t40 249.5q0 248 -189 248q-93 0 -166.5 -71.5t-114 -194t-40.5 -247.5z" />
<glyph unicode="p" horiz-adv-x="1200" d="M-55 -492l338 1598h184l-21 -188h9q157 208 344 208q143 0 224 -103t81 -296.5t-70 -371t-190.5 -276.5t-265.5 -99q-181 0 -269 176h-10q-7 -97 -25 -185l-96 -463h-233zM369 395q0 -225 178 -225q85 0 159 78.5t117 210t43 274.5q0 201 -155 201q-81 0 -161 -79.5 t-130.5 -210.5t-50.5 -249z" />
<glyph unicode="q" horiz-adv-x="1198" d="M94 380q0 195 73 374t192.5 275.5t265.5 96.5q183 0 274 -178h10l64 158h178l-340 -1598h-233l75 349q12 56 43.5 180t38.5 141h-8q-84 -108 -164 -153t-170 -45q-139 0 -219 102.5t-80 297.5zM332 373q0 -203 160 -203q80 0 159 81t127.5 213t48.5 248q0 222 -172 222 q-86 0 -160 -77.5t-118.5 -209.5t-44.5 -274z" />
<glyph unicode="r" horiz-adv-x="836" d="M47 0l236 1106h184l-21 -205h9q156 225 327 225q77 0 123 -12l-51 -219q-54 14 -102 14q-126 0 -225 -113t-138 -296l-106 -500h-236z" />
<glyph unicode="s" horiz-adv-x="922" d="M14 47v203q153 -90 312 -90q97 0 157 40t60 100t-34.5 96.5t-150.5 100.5t-167.5 133.5t-51.5 164.5q0 155 107 243t296 88t339 -84l-76 -176q-140 76 -266 76q-73 0 -118.5 -33t-45.5 -85t33 -87t136.5 -92t147.5 -99q90 -86 90 -206q0 -173 -118 -266.5t-318 -93.5 t-332 67z" />
<glyph unicode="t" horiz-adv-x="752" d="M92 928l21 110l190 82l129 232h146l-52 -246h279l-39 -178h-277l-122 -572q-13 -55 -13 -95t25 -65.5t84.5 -25.5t142.5 31v-178q-89 -43 -215 -43q-274 0 -274 247q0 57 16 131l121 570h-162z" />
<glyph unicode="u" horiz-adv-x="1208" d="M111 274q0 63 12 124.5t24 123.5l123 584h236l-129 -610q-31 -141 -31 -193q0 -133 127 -133q72 0 143 57q150 120 211 410l99 469h233l-233 -1106h-185l21 205h-8q-159 -225 -363 -225q-134 0 -207 76t-73 218z" />
<glyph unicode="v" horiz-adv-x="997" d="M100 1106h232l55 -598q14 -159 14 -297h7q66 173 135 297l311 598h250l-598 -1106h-275z" />
<glyph unicode="w" horiz-adv-x="1540" d="M121 1106h221l13 -646q-2 -87 -11 -245h6q66 176 109 272l278 619h254l19 -604l1 -53l-3 -234h6q67 196 105.5 286.5t266.5 604.5h244l-518 -1106h-268l-19 627l-1 70l3 200q-57 -141 -397 -897h-262z" />
<glyph unicode="x" horiz-adv-x="1032" d="M-86 0l475 569l-231 537h245l144 -373l287 373h274l-461 -549l248 -557h-246l-160 387l-305 -387h-270z" />
<glyph unicode="y" horiz-adv-x="1004" d="M-170 -285q75 -16 137 -16t122 43.5t124 155.5l51 92l-164 1116h232l63 -531q23 -158 23 -356h6q86 215 135 313l293 574h254l-688 -1280q-90 -165 -196 -241.5t-249 -76.5q-76 0 -143 19v188z" />
<glyph unicode="z" horiz-adv-x="920" d="M-39 0l29 147l635 781h-439l39 178h705l-37 -170l-623 -758h486l-37 -178h-758z" />
<glyph unicode="{" horiz-adv-x="721" d="M8 485l39 187q120 0 191.5 42.5t93.5 143.5l59 275q28 134 73 201.5t120 97.5t198 30h60l-41 -184q-96 0 -139.5 -34t-61.5 -116l-70 -309q-24 -108 -87 -170.5t-179 -79.5v-6q160 -45 160 -215q0 -38 -16 -121l-43 -194q-11 -48 -11 -87q0 -85 142 -85v-185h-39 q-316 0 -316 236q0 61 17 133l45 201q14 65 14 98q0 141 -209 141z" />
<glyph unicode="|" d="M498 -481v2033h178v-2033h-178z" />
<glyph unicode="}" horiz-adv-x="721" d="M-88 -141q106 2 152.5 36.5t64.5 114.5l70 309q24 109 87 170t179 78v6q-158 48 -158 215q0 55 17 121l43 197q10 44 10 74q0 58 -43 78t-121 20l35 184h22q318 0 318 -235q0 -61 -17 -133l-45 -203q-14 -65 -14 -98q0 -142 209 -142l-39 -186q-121 0 -192 -42t-93 -142 l-63 -306q-34 -165 -123.5 -232t-269.5 -67h-29v183z" />
<glyph unicode="~" d="M111 571v191q100 108 249 108q64 0 118.5 -12t135.5 -46.5t126 -47t94.5 -12.5t112 31t120.5 89v-190q-103 -111 -250 -111q-108 0 -262 66q-131 55 -211 55q-110 0 -233 -121z" />
<glyph unicode="&#xa2;" d="M195 602q0 174 63.5 335t178 260.5t261.5 121.5l35 164h156l-37 -164q124 -12 221 -57l-69 -185q-125 53 -223 53t-179 -71.5t-125.5 -194.5t-44.5 -250t56 -187t163.5 -60t259.5 75v-194q-133 -69 -293 -74l-40 -194h-156l45 213q-132 34 -202 134.5t-70 274.5z" />
<glyph unicode="&#xa3;" d="M-18 0l38 193q200 45 250 276l35 164h-196l36 172h197l61 299q38 185 153 282t301.5 97t350.5 -86l-88 -183q-143 74 -258 74q-185 0 -227 -205l-57 -278h333l-34 -172h-336l-33 -152q-42 -194 -199 -274h690l-45 -207h-972z" />
<glyph unicode="&#xa5;" d="M106 244l33 155h273l30 148h-272l35 155h211l-199 760h232l145 -669l432 669h248l-518 -760h217l-35 -155h-274l-31 -148h274l-33 -155h-272l-53 -244h-221l51 244h-273z" />
<glyph unicode="&#xa8;" horiz-adv-x="1135" d="M426 1380q0 60 35 98t98 38q105 0 105 -95q0 -65 -35.5 -102t-88.5 -37q-114 0 -114 98zM809 1380q0 60 35 98t98 38q105 0 105 -95q0 -65 -35.5 -102t-87.5 -37q-115 0 -115 98z" />
<glyph unicode="&#xa9;" horiz-adv-x="1704" d="M131 732q0 199 100 374t275 276t375.5 101t375 -99t276 -275.5t101.5 -376.5t-98.5 -374t-272.5 -276t-380.5 -102t-381.5 103.5t-272.5 276.5t-97.5 372zM254 730.5q0 -167.5 83 -312t229 -230.5t318 -86t318.5 87t227.5 231.5t81 310t-82 311t-227.5 232t-316 86.5 t-317 -84.5t-230.5 -231t-84 -314zM502 729q0 214 113.5 338.5t312.5 124.5q138 0 266 -66l-68 -147q-106 55 -207.5 55t-164 -76t-62.5 -231q0 -301 238 -301q103 0 221 51v-158q-117 -51 -240 -51q-197 0 -303 123.5t-106 337.5z" />
<glyph unicode="&#xab;" horiz-adv-x="1055" d="M80 553v22l395 420l135 -118l-288 -332l153 -369l-178 -76zM520 530v25l385 434l137 -112l-280 -351l147 -350l-180 -76z" />
<glyph unicode="&#xad;" horiz-adv-x="649" d="M47 446l45 203h502l-45 -203h-502z" />
<glyph unicode="&#xae;" horiz-adv-x="1704" d="M131 732q0 199 100 374t275 276t375.5 101t375 -99t276 -275.5t101.5 -376.5t-98.5 -374t-272.5 -276t-380.5 -102t-381.5 103.5t-272.5 276.5t-97.5 372zM254 730.5q0 -167.5 83 -312t229 -230.5t318 -86t318.5 87t227.5 231.5t81 310t-82 311t-227.5 232t-316 86.5 t-317 -84.5t-230.5 -231t-84 -314zM608 291v878h269q337 0 337 -262q0 -168 -176 -243l211 -373h-200l-172 325h-91v-325h-178zM786 760h72q84 0 129 36t45 104t-45.5 96t-128.5 28h-72v-264z" />
<glyph unicode="&#xb4;" horiz-adv-x="1135" d="M508 1241v25q97 108 225 303h264v-19q-54 -66 -158 -161.5t-175 -147.5h-156z" />
<glyph unicode="&#xb8;" horiz-adv-x="420" d="M-188 -342q47 -14 96 -14q137 0 137 96q0 74 -139 92l98 168h146l-50 -96q136 -47 136 -160.5t-82 -174.5t-224 -61q-64 0 -118 15v135z" />
<glyph unicode="&#xbb;" horiz-adv-x="1055" d="M10 211l281 348l-146 352l179 76l211 -432v-25l-385 -432zM444 211l287 330l-153 370l180 76l217 -455v-22l-397 -418z" />
<glyph unicode="&#x2c6;" horiz-adv-x="1135" d="M354 1241v25q231 215 291 303h248q38 -99 174 -303v-25h-152q-76 63 -161 178q-131 -110 -236 -178h-164z" />
<glyph unicode="&#x2da;" horiz-adv-x="1182" d="M541 1464q0 103 65 164.5t168.5 61.5t170.5 -60.5t67 -164t-66 -165t-172 -61.5t-169.5 61t-63.5 164zM670 1464q0 -104 104 -104q47 0 77 27.5t30 77t-30 78t-76 28.5t-75.5 -28.5t-29.5 -78.5z" />
<glyph unicode="&#x2dc;" horiz-adv-x="1135" d="M326 1239q57 285 256 285q67 0 158 -56q33 -20 63 -37.5t64.5 -17.5t59.5 26.5t48 86.5h137q-66 -285 -260 -285q-64 0 -154 55q-34 20 -65.5 37t-63.5 17q-70 0 -106 -111h-137z" />
<glyph unicode="&#x400;" horiz-adv-x="1077" d="M70 0l309 1462h776l-43 -205h-539l-84 -395h502l-41 -203h-504l-96 -456h539l-43 -203h-776zM526 1886v21h245q47 -154 132 -303v-25h-144q-65 63 -132 151.5t-101 155.5z" />
<glyph unicode="&#x401;" horiz-adv-x="1077" d="M70 0l309 1462h776l-43 -205h-539l-84 -395h502l-41 -203h-504l-96 -456h539l-43 -203h-776zM487 1718q0 60 35 98t98 38q105 0 105 -95q0 -65 -35.5 -102t-88.5 -37q-114 0 -114 98zM870 1718q0 60 35 98t98 38q105 0 105 -95q0 -65 -35.5 -102t-87.5 -37 q-115 0 -115 98z" />
<glyph unicode="&#x402;" horiz-adv-x="1442" d="M176 1257l45 205h950l-43 -205h-376l-74 -346h250q187 0 281 -84t94 -233q0 -96 -38 -273t-131 -259t-266 -82q-98 0 -166 28v203q63 -29 143 -29t125 46t66 146q27 130 27 195q0 138 -172 138h-256l-150 -707h-239l268 1257h-338z" />
<glyph unicode="&#x403;" horiz-adv-x="1001" d="M70 0l309 1462h774l-43 -205h-539l-266 -1257h-235zM633 1579v25q97 108 225 303h264v-19q-54 -66 -158 -161.5t-175 -147.5h-156z" />
<glyph unicode="&#x404;" horiz-adv-x="1225" d="M135 541.5q0 263.5 105.5 486.5t281.5 339t396.5 116t394.5 -92l-94 -195q-152 82 -310 82t-288 -111t-193 -313h578l-41 -203h-576q-6 -31 -6 -106q0 -175 82 -268t233.5 -93t339.5 68v-205q-177 -67 -374 -67q-254 0 -391.5 149t-137.5 412.5z" />
<glyph unicode="&#x405;" horiz-adv-x="1057" d="M39 55v224q173 -97 330 -97t236 58.5t79 162.5q0 69 -41 122.5t-159 128.5t-168 130q-103 113 -103 253t61.5 239t174 153t253.5 54q205 0 381 -92l-86 -191q-161 78 -282.5 78t-187.5 -58.5t-66 -152.5q0 -89 61 -149q32 -30 161 -111t188 -171.5t59 -207.5 q0 -210 -144.5 -329t-376.5 -119t-370 75z" />
<glyph unicode="&#x406;" horiz-adv-x="608" d="M70 0l311 1462h235l-311 -1462h-235z" />
<glyph unicode="&#x407;" horiz-adv-x="608" d="M70 0l311 1462h235l-311 -1462h-235zM239 1718q0 60 35 98t98 38q105 0 105 -95q0 -65 -35.5 -102t-88.5 -37q-114 0 -114 98zM622 1718q0 60 35 98t98 38q105 0 105 -95q0 -65 -35.5 -102t-87.5 -37q-115 0 -115 98z" />
<glyph unicode="&#x408;" horiz-adv-x="612" d="M-322 -383l5 201q84 -21 153 -21q201 0 254 250l299 1415h238l-305 -1446q-46 -217 -161.5 -320.5t-312.5 -103.5q-104 0 -170 25z" />
<glyph unicode="&#x409;" horiz-adv-x="1890" d="M-63 2v201q60 -21 114 -21t98 31.5t85.5 103.5t94.5 225q100 290 265 920h756l-125 -594h88q226 0 345.5 -95t119.5 -281q0 -237 -154 -364.5t-440 -127.5h-381l264 1255h-295l-60 -225q-139 -513 -218 -704.5t-176 -268.5t-248 -77q-74 0 -133 22zM1081 199h136 q317 0 317 278q0 191 -227 191h-125z" />
<glyph unicode="&#x40a;" horiz-adv-x="1884" d="M70 0l309 1462h237l-124 -592h485l127 592h237l-124 -592h98q224 0 339 -95t115 -281q0 -239 -152 -366.5t-435 -127.5h-387l141 668h-487l-142 -668h-237zM1075 199h137q156 0 236 70t80 206q0 193 -228 193h-124z" />
<glyph unicode="&#x40b;" horiz-adv-x="1442" d="M176 1257l45 205h950l-43 -205h-376l-74 -346h250q372 0 372 -325q0 -68 -22 -172l-84 -414h-242l97 442q14 75 14 135t-43.5 95t-136.5 35h-248l-150 -707h-239l268 1257h-338z" />
<glyph unicode="&#x40c;" horiz-adv-x="1182" d="M70 0l309 1462h237l-149 -698l623 698h278l-659 -727l383 -735h-267l-366 721l-152 -721h-237zM715 1579v25q97 108 225 303h264v-19q-54 -66 -158 -161.5t-175 -147.5h-156z" />
<glyph unicode="&#x40d;" horiz-adv-x="1487" d="M70 0l309 1462h221q-215 -1013 -248 -1128h8l852 1128h285l-309 -1462h-219q112 532 173.5 827t74.5 322h-7l-854 -1149h-286zM666 1886v21h245q47 -154 132 -303v-25h-144q-65 63 -132 151.5t-101 155.5z" />
<glyph unicode="&#x40e;" horiz-adv-x="1198" d="M12 10v217q82 -39 175 -39t159.5 49t147.5 183l-297 1042h239l166 -637q39 -160 49 -221q50 118 97 199l374 659h264l-643 -1067q-107 -178 -183.5 -260t-161.5 -118.5t-196 -36.5t-190 30zM412 1856q0 28 8 57h205l-4 -53q0 -133 172 -133q106 0 161.5 44.5t75.5 141.5 h217q-39 -174 -153.5 -254t-304.5 -80q-377 0 -377 277z" />
<glyph unicode="&#x40f;" horiz-adv-x="1407" d="M70 0l309 1462h239l-266 -1257h561l267 1257h237l-309 -1462h-403l-87 -403h-231l86 403h-403z" />
<glyph unicode="&#x410;" horiz-adv-x="1210" d="M-121 0l783 1464h274l166 -1464h-234l-41 406h-485l-209 -406h-254zM446 614h365q-51 530 -51 643q-55 -139 -142 -307z" />
<glyph unicode="&#x411;" horiz-adv-x="1184" d="M72 0l309 1462h776l-43 -205h-541l-81 -389h108q465 0 465 -383q0 -234 -154.5 -359.5t-439.5 -125.5h-399zM348 199h148q163 0 245 69.5t82 202.5q0 197 -227 197h-147z" />
<glyph unicode="&#x412;" horiz-adv-x="1247" d="M70 0l309 1462h399q222 0 335.5 -84t113.5 -239t-86.5 -252t-239.5 -127v-8q108 -28 167.5 -103.5t59.5 -183.5q0 -217 -150 -341t-417 -124h-491zM348 201h223q147 0 230.5 68t83.5 180t-60 163.5t-176 51.5h-200zM489 858h199q139 0 215 60.5t76 171.5q0 172 -223 172 h-181z" />
<glyph unicode="&#x413;" horiz-adv-x="1001" d="M70 0l309 1462h774l-43 -205h-539l-266 -1257h-235z" />
<glyph unicode="&#x414;" horiz-adv-x="1372" d="M-182 -401l127 606h114q183 257 344.5 594.5t258.5 662.5h671l-266 -1257h186l-129 -606h-233l86 401h-846l-86 -401h-227zM326 205h497l226 1050h-226q-80 -244 -217 -540t-280 -510z" />
<glyph unicode="&#x415;" horiz-adv-x="1077" d="M70 0l309 1462h776l-43 -205h-539l-84 -395h502l-41 -203h-504l-96 -456h539l-43 -203h-776z" />
<glyph unicode="&#x416;" horiz-adv-x="1681" d="M-113 0l652 774l-322 688h244l313 -692l148 692h229l-147 -692l587 692h267l-627 -729l334 -733h-252l-320 725l-151 -725h-230l152 723l-602 -723h-275z" />
<glyph unicode="&#x417;" horiz-adv-x="1155" d="M16 59v213q183 -100 380 -100t293.5 73t96.5 194.5t-83.5 172t-237.5 50.5h-178l41 190h164q190 0 291.5 68t101.5 188q0 90 -55 135t-154 45q-173 0 -357 -121l-90 166q125 82 243 116t278 34t270 -91t110 -246t-104 -258t-289 -128v-4q137 -18 216 -103t79 -217 q0 -214 -162 -335t-429 -121t-425 79z" />
<glyph unicode="&#x418;" horiz-adv-x="1487" d="M70 0l309 1462h221q-215 -1013 -248 -1128h8l852 1128h285l-309 -1462h-219q112 532 173.5 827t74.5 322h-7l-854 -1149h-286z" />
<glyph unicode="&#x419;" horiz-adv-x="1487" d="M70 0l309 1462h221q-215 -1013 -248 -1128h8l852 1128h285l-309 -1462h-219q112 532 173.5 827t74.5 322h-7l-854 -1149h-286zM565 1856q0 28 8 57h205l-4 -53q0 -133 172 -133q106 0 161.5 44.5t75.5 141.5h217q-39 -174 -153.5 -254t-304.5 -80q-377 0 -377 277z" />
<glyph unicode="&#x41a;" horiz-adv-x="1182" d="M70 0l309 1462h237l-149 -698l623 698h278l-659 -727l383 -735h-267l-366 721l-152 -721h-237z" />
<glyph unicode="&#x41b;" horiz-adv-x="1370" d="M-63 2v201q55 -21 111.5 -21t100.5 31.5t85.5 103.5t94.5 225q100 290 265 920h786l-311 -1462h-238l269 1255h-328q-135 -520 -227.5 -793.5t-195.5 -379t-279 -105.5q-81 0 -133 25z" />
<glyph unicode="&#x41c;" horiz-adv-x="1757" d="M68 0l309 1462h323l109 -1149h6l606 1149h344l-305 -1462h-227l182 872q39 186 86 342h-6l-643 -1214h-205l-115 1214h-6q-9 -118 -55 -340l-184 -874h-219z" />
<glyph unicode="&#x41d;" horiz-adv-x="1411" d="M70 0l309 1462h237l-127 -598h566l127 598h237l-309 -1462h-238l140 659h-566l-139 -659h-237z" />
<glyph unicode="&#x41e;" horiz-adv-x="1485" d="M135 544.5q0 265.5 98.5 486t269.5 337.5t405 117t373.5 -149t139.5 -421t-95 -490t-261.5 -331.5t-406 -113.5t-381.5 149.5t-142 415zM383 559.5q0 -187.5 81.5 -281.5t223.5 -94t252.5 95.5t172 265t61.5 357.5t-79 283t-220 95t-253 -96t-175.5 -266.5t-63.5 -358z " />
<glyph unicode="&#x41f;" horiz-adv-x="1407" d="M70 0l309 1462h1038l-309 -1462h-240l267 1257h-562l-266 -1257h-237z" />
<glyph unicode="&#x420;" horiz-adv-x="1174" d="M70 0l309 1462h334q461 0 461 -401q0 -248 -169.5 -381t-472.5 -133h-110l-115 -547h-237zM465 748h94q178 0 275.5 79.5t97.5 225.5q0 109 -58.5 159t-179.5 50h-119z" />
<glyph unicode="&#x421;" horiz-adv-x="1225" d="M135 541q0 264 105.5 487t281.5 339t397.5 116t393.5 -92l-94 -195q-152 82 -300.5 82t-269.5 -89t-193.5 -259.5t-72.5 -362.5q0 -383 326 -383q141 0 329 68v-205q-180 -67 -374 -67q-248 0 -388.5 148.5t-140.5 412.5z" />
<glyph unicode="&#x422;" horiz-adv-x="1053" d="M176 1257l45 205h998l-43 -205h-381l-267 -1257h-237l264 1257h-379z" />
<glyph unicode="&#x423;" horiz-adv-x="1198" d="M12 10v217q82 -39 175 -39t159.5 49t147.5 183l-297 1042h239l166 -637q39 -160 49 -221q50 118 97 199l374 659h264l-643 -1067q-107 -178 -183.5 -260t-161.5 -118.5t-196 -36.5t-190 30z" />
<glyph unicode="&#x424;" horiz-adv-x="1597" d="M135 676q0 287 184.5 451t518.5 176l36 180h230l-37 -180q226 -17 346.5 -138.5t120.5 -317t-82 -336.5t-239.5 -221t-378.5 -85l-50 -225h-229l49 223q-225 17 -347 140t-122 333zM375 680q0 -127 67.5 -202.5t200.5 -80.5l152 709q-196 -4 -308 -118t-112 -308z M874 397q199 11 309.5 125.5t110.5 308.5q0 126 -70.5 199t-197.5 76z" />
<glyph unicode="&#x425;" horiz-adv-x="1151" d="M-111 0l586 770l-250 692h246l178 -540l402 540h266l-551 -710l274 -752h-256l-192 592l-438 -592h-265z" />
<glyph unicode="&#x426;" horiz-adv-x="1432" d="M68 0l309 1462h239l-266 -1257h547l266 1257h238l-268 -1261h188l-129 -604h-234l86 403h-976z" />
<glyph unicode="&#x427;" horiz-adv-x="1343" d="M217 793q0 61 16 141l111 528h238l-107 -510q-16 -68 -16 -110q0 -144 160.5 -144t351.5 76l143 688h240l-310 -1462h-239l123 580q-188 -86 -361.5 -86t-261.5 78.5t-88 220.5z" />
<glyph unicode="&#x428;" horiz-adv-x="2005" d="M68 0l309 1462h244l-269 -1257h457l266 1257h244l-266 -1257h454l267 1257h241l-309 -1462h-1638z" />
<glyph unicode="&#x429;" horiz-adv-x="2046" d="M68 0l309 1462h244l-269 -1257h457l266 1257h244l-266 -1257h454l267 1257h241l-266 -1261h186l-129 -604h-231l86 403h-1593z" />
<glyph unicode="&#x42a;" horiz-adv-x="1352" d="M176 1257l45 205h576l-127 -594h104q228 0 346.5 -96.5t118.5 -286.5q0 -233 -153.5 -359t-440.5 -126h-397l266 1257h-338zM528 199h140q163 0 245 69.5t82 188.5t-58 165t-169 46h-139z" />
<glyph unicode="&#x42b;" horiz-adv-x="1679" d="M70 0l309 1462h237l-124 -594h88q227 0 345.5 -96t118.5 -287q0 -233 -153.5 -359t-439.5 -126h-381zM348 199h125q162 0 245 69t83 188t-58.5 165.5t-169.5 46.5h-124zM1139 0l309 1462h242l-310 -1462h-241z" />
<glyph unicode="&#x42c;" horiz-adv-x="1174" d="M70 0l309 1462h237l-124 -594h102q465 0 465 -383q0 -234 -154.5 -359.5t-439.5 -125.5h-395zM348 199h141q162 0 245 69t83 203q0 197 -227 197h-141z" />
<glyph unicode="&#x42d;" horiz-adv-x="1225" d="M23 61v218q182 -95 358 -95q396 0 502 467h-580l41 203h569l2 72q0 170 -79 261t-220.5 91t-326.5 -70l-62 195q200 80 431.5 80t367 -144t135.5 -420t-96 -495.5t-268 -331.5t-401 -112t-373 81z" />
<glyph unicode="&#x42e;" horiz-adv-x="2032" d="M70 0l309 1462h237l-127 -598h291q71 289 253.5 455t426 166t376 -148.5t132.5 -421.5t-89 -489.5t-247 -331t-388.5 -114.5t-366.5 149t-136 414q0 65 7 116h-302l-139 -659h-237zM989 559q0 -189 75.5 -282t207.5 -93t232 91t159 260t59 363.5t-74 288t-204 93.5 t-234 -95.5t-162.5 -266t-58.5 -359.5z" />
<glyph unicode="&#x42f;" horiz-adv-x="1210" d="M-100 0l514 664q-104 61 -149.5 141t-45.5 186q0 223 148.5 347t418.5 124h435l-310 -1462h-237l123 586h-174l-439 -586h-284zM467 1010q0 -115 64.5 -170.5t179.5 -55.5h129l102 478h-160q-156 0 -235.5 -68.5t-79.5 -183.5z" />
<glyph unicode="&#x430;" horiz-adv-x="1186" d="M94 376q0 193 69.5 369t191.5 278.5t268 102.5q196 0 276 -178h10l62 158h180l-236 -1106h-182l21 176h-6q-158 -196 -349 -196q-141 0 -223 101.5t-82 294.5zM332 373q0 -203 158 -203q77 0 156 77.5t130 207.5t51 284q0 88 -47 141.5t-127.5 53.5t-155.5 -77 t-120 -209.5t-45 -274.5z" />
<glyph unicode="&#x431;" horiz-adv-x="1153" d="M104 447q0 226 67 445.5t180.5 362.5t258.5 195q67 27 240 61t346 56l27 -199l-106 -16q-335 -49 -439 -98q-203 -98 -281 -402h2q150 178 353 178q143 0 223 -94t80 -283t-69.5 -348.5t-193 -242t-303 -82.5t-282.5 120.5t-103 346.5zM342 442q0 -270 184 -270 q166 0 250 234q41 114 41 239q0 201 -145 201q-75 0 -160.5 -55.5t-146.5 -143.5q-23 -113 -23 -205z" />
<glyph unicode="&#x432;" horiz-adv-x="1137" d="M94 422q0 209 74 368.5t210 247.5t316.5 88t281.5 -75t101 -213q0 -220 -260 -279v-4q193 -52 193 -229q0 -100 -54.5 -178t-158.5 -123t-250 -45q-220 0 -336.5 116.5t-116.5 325.5zM330 420q0 -264 225 -264q105 0 164 47.5t59 123.5t-56.5 112t-182.5 36h-207l-2 -27 v-28zM360 647h213q133 0 203 46t70 114q0 139 -158 139q-119 0 -204 -79t-124 -220z" />
<glyph unicode="&#x433;" horiz-adv-x="958" d="M37 274q0 170 155 272q76 50 227 105t199 96t48 93q0 102 -132 102t-290 -74l-60 174q189 84 366 84t265 -71t88 -196.5t-71.5 -206.5t-247.5 -148q-178 -59 -240.5 -107.5t-62.5 -115.5q0 -119 168 -119q132 0 319 86v-189q-170 -79 -353.5 -79t-280.5 77t-97 217z" />
<glyph unicode="&#x434;" horiz-adv-x="1192" d="M94 388.5q0 187.5 63 338.5t177.5 237.5t257.5 86.5q191 0 285 -179h6l2 34v28q0 232 -65.5 341t-205.5 109q-107 0 -208 -45l-54 181q133 57 295 57q473 0 473 -639q0 -270 -81.5 -496.5t-223.5 -344t-328.5 -117.5t-289.5 110.5t-103 298zM332 405.5q0 -118.5 46 -176 t128 -57.5q122 0 212.5 134t131.5 368q-26 90 -83 142t-137 52t-150 -62.5t-109 -172t-39 -228z" />
<glyph unicode="&#x435;" horiz-adv-x="1075" d="M94 400.5q0 198.5 77.5 369t210 263.5t295 93t252 -72.5t89.5 -205.5q0 -182 -166.5 -284.5t-474.5 -102.5h-43l-2 -31v-29q0 -111 56.5 -174t179.5 -63t300 84v-187q-177 -81 -365 -81t-298.5 111t-110.5 309.5zM362 633h29q188 0 294 53.5t106 151.5q0 51 -32 79.5 t-95 28.5q-96 0 -180.5 -86t-121.5 -227z" />
<glyph unicode="&#x436;" horiz-adv-x="1837" d="M-29 -6l37 188q48 -12 90 -12q95 0 170 71t117.5 194t42.5 251q0 248 -170 248q-56 0 -117 -21v191q76 22 158 22q173 0 269 -111t96 -315q0 -27 -5 -65h168l101 471h221l-102 -471h159q55 229 196.5 360t336.5 131q83 0 137 -14l-41 -188q-44 10 -94 10 q-90 0 -163.5 -65.5t-118 -190t-44.5 -254.5q0 -254 168 -254q50 0 117 23v-193q-70 -20 -156 -20q-172 0 -268 108.5t-96 314.5v33l2 33h-170l-101 -469h-219l101 469h-158q-54 -227 -196 -358t-339 -131q-68 0 -129 14z" />
<glyph unicode="&#x437;" horiz-adv-x="983" d="M10 51v203q170 -88 321 -88t222.5 47.5t71.5 125t-46.5 112t-146.5 34.5h-162l39 179h111q146 0 210 40t64 121q0 117 -164 117q-124 0 -297 -74l-61 174q196 84 382 84t280 -70t94 -188q0 -231 -258 -288v-7q188 -48 188 -225.5t-133.5 -272.5t-354 -95t-360.5 71z" />
<glyph unicode="&#x438;" horiz-adv-x="1208" d="M111 274q0 63 12 124.5t24 123.5l123 584h236l-129 -610q-31 -141 -31 -193q0 -133 127 -133q72 0 143 57q150 120 211 410l99 469h233l-233 -1106h-185l21 205h-8q-159 -225 -363 -225q-134 0 -207 76t-73 218z" />
<glyph unicode="&#x439;" horiz-adv-x="1208" d="M111 274q0 63 12 124.5t24 123.5l123 584h236l-129 -610q-31 -141 -31 -193q0 -133 127 -133q72 0 143 57q150 120 211 410l99 469h233l-233 -1106h-185l21 205h-8q-159 -225 -363 -225q-134 0 -207 76t-73 218zM363 1518q0 28 8 57h205l-4 -53q0 -133 172 -133 q106 0 161.5 44.5t75.5 141.5h217q-39 -174 -153.5 -254t-304.5 -80q-377 0 -377 277z" />
<glyph unicode="&#x43a;" horiz-adv-x="1079" d="M47 0l236 1106h233l-110 -524l479 524h278l-514 -551l326 -555h-270l-308 545l-114 -545h-236z" />
<glyph unicode="&#x43b;" horiz-adv-x="1180" d="M-78 2v197q36 -15 80.5 -15t81.5 32.5t71.5 99t105 269t120 293t109.5 142.5q117 100 337 100q156 0 295 -43l-227 -1077h-236l197 920q-37 8 -89.5 8t-99.5 -32t-87.5 -107t-121 -309.5t-133.5 -323.5q-105 -174 -288 -174q-64 0 -115 20z" />
<glyph unicode="&#x43c;" horiz-adv-x="1516" d="M41 0l235 1106h297l95 -678l16 -176q61 142 115 231l356 623h313l-235 -1106h-219l180 844l-469 -844h-176l-98 672q-12 77 -17 172l-178 -844h-215z" />
<glyph unicode="&#x43d;" horiz-adv-x="1243" d="M47 0l238 1106h233l-94 -444h442l95 444h233l-233 -1106h-236l100 477h-440l-102 -477h-236z" />
<glyph unicode="&#x43e;" horiz-adv-x="1174" d="M94 409q0 198 71.5 364t200.5 258.5t311 92.5t292 -116t110 -317t-73 -366.5t-200.5 -254t-306.5 -88.5t-292 114.5t-113 312.5zM332 417q0 -243 196 -243q90 0 162 68t112 190.5t40 249.5q0 248 -189 248q-93 0 -166.5 -71.5t-114 -194t-40.5 -247.5z" />
<glyph unicode="&#x43f;" horiz-adv-x="1208" d="M47 0l236 1106h184l-21 -205h9q158 225 362 225q134 0 207.5 -76t73.5 -216q0 -69 -23 -181l-137 -653h-236l142 672q18 90 18 131q0 131 -129 131q-72 0 -142 -57t-126 -164.5t-84 -243.5l-98 -469h-236z" />
<glyph unicode="&#x440;" horiz-adv-x="1200" d="M-55 -492l338 1598h184l-21 -188h9q157 208 344 208q143 0 224 -103t81 -296.5t-70 -371t-190.5 -276.5t-265.5 -99q-181 0 -269 176h-10q-7 -97 -25 -185l-96 -463h-233zM369 395q0 -225 178 -225q85 0 159 78.5t117 210t43 274.5q0 201 -155 201q-81 0 -161 -79.5 t-130.5 -210.5t-50.5 -249z" />
<glyph unicode="&#x441;" horiz-adv-x="954" d="M94 394q0 202 73.5 371.5t206.5 265t299.5 95.5t299.5 -61l-70 -184q-122 53 -221 53q-150 0 -250 -153.5t-100 -379.5q0 -111 56 -171t162.5 -60t260.5 76v-195q-140 -71 -320.5 -71t-288.5 106t-108 308z" />
<glyph unicode="&#x442;" horiz-adv-x="1819" d="M47 0l236 1106h184l-21 -205h9q148 225 360 225t246 -235h8q75 116 170.5 175.5t213.5 59.5t187.5 -76.5t69.5 -215.5q0 -64 -22 -181l-140 -653h-235l143 672q19 95 19 133q0 129 -121 129q-108 0 -201.5 -124t-136.5 -329l-101 -481h-235l143 672q17 82 17 127 q0 135 -117 135q-110 0 -203.5 -127t-138.5 -338l-98 -469h-236z" />
<glyph unicode="&#x443;" horiz-adv-x="1004" d="M-170 -285q75 -16 137 -16t122 43.5t124 155.5l51 92l-164 1116h232l63 -531q23 -158 23 -356h6q86 215 135 313l293 574h254l-688 -1280q-90 -165 -196 -241.5t-249 -76.5q-76 0 -143 19v188z" />
<glyph unicode="&#x444;" horiz-adv-x="1460" d="M94 446.5q0 192.5 82 344.5t227.5 235.5t337.5 91.5l93 438h221l-94 -438q196 -26 301.5 -147.5t105.5 -313.5t-82 -344t-228 -236t-337 -95l-100 -474h-222l103 478q-194 23 -301 145.5t-107 315zM334 463q0 -127 55 -202.5t152 -86.5l161 758q-228 -14 -322 -234 q-46 -108 -46 -235zM762 174q225 21 319 238q47 109 47 235t-55 197t-151 84z" />
<glyph unicode="&#x445;" horiz-adv-x="1032" d="M-86 0l475 569l-231 537h245l144 -373l287 373h274l-461 -549l248 -557h-246l-160 387l-305 -387h-270z" />
<glyph unicode="&#x446;" horiz-adv-x="1243" d="M109 274q0 68 26 193l135 639h236l-144 -674q-16 -76 -16 -129q0 -133 127 -133q112 0 210.5 127.5t143.5 339.5l99 469h233l-162 -768q-12 -58 -12 -92q0 -72 70 -72q33 0 84 14l-125 -579h-226l89 383q-111 40 -123 198h-6q-147 -210 -357 -210q-134 0 -208 76t-74 218 z" />
<glyph unicode="&#x447;" horiz-adv-x="1178" d="M160 662q0 79 26 196l54 248h235l-59 -277q-19 -86 -19 -148t37 -95t98 -33q122 0 204 106.5t132 327.5l27 119h233l-235 -1106h-236l64 305q12 60 28.5 117.5t28.5 105.5h-8q-135 -166 -326 -166q-139 0 -211.5 78t-72.5 222z" />
<glyph unicode="&#x448;" horiz-adv-x="1819" d="M109 272q0 64 22 181l139 653h236l-144 -672q-18 -90 -18 -133q0 -129 121 -129q108 0 201 124.5t137 328.5l100 481h236l-144 -672q-16 -80 -16 -127q0 -135 117 -135q110 0 202.5 126t139.5 339l98 469h236l-236 -1106h-184l20 205h-8q-148 -225 -352 -225 q-114 0 -176.5 62.5t-77.5 172.5h-8q-75 -116 -170.5 -175.5t-213.5 -59.5t-187.5 76.5t-69.5 215.5z" />
<glyph unicode="&#x449;" horiz-adv-x="1853" d="M109 272q0 59 22 181l139 653h236l-144 -674q-18 -85 -18 -131q0 -129 121 -129q107 0 201 124t137 329l100 481h236l-144 -674q-16 -76 -16 -134q0 -126 117 -126q110 0 202.5 126t139.5 339l98 469h236l-164 -768q-11 -57 -11 -92t19 -53.5t53 -18.5t82 14l-125 -579 h-225l88 383q-115 40 -127 201h-4q-147 -213 -346 -213q-114 0 -176.5 62.5t-77.5 172.5h-8q-152 -235 -369 -235q-133 0 -202.5 76.5t-69.5 215.5z" />
<glyph unicode="&#x44a;" horiz-adv-x="1296" d="M88 920l39 186h584l-101 -467q107 25 219 25q164 0 254.5 -78.5t90.5 -206.5t-56 -215q-119 -184 -422 -184q-189 0 -283 84t-94 235q0 77 25 188l92 433h-348zM553 313q0 -157 170 -157q99 0 158 50.5t59 137.5q0 143 -174 143q-87 0 -191 -20q-22 -104 -22 -154z" />
<glyph unicode="&#x44b;" horiz-adv-x="1561" d="M117 299q0 86 22 190l133 617h236l-100 -467q125 25 210 25q152 0 238 -78t86 -215q0 -179 -121.5 -285t-321.5 -106t-291 84t-91 235zM350 311q0 -155 156 -155q93 0 148 51.5t55 133.5t-43 114t-121 32t-174 -20q-6 -29 -10.5 -50.5t-6.5 -39.5q-4 -36 -4 -66zM1042 0 l234 1106h235l-235 -1106h-234z" />
<glyph unicode="&#x44c;" horiz-adv-x="1108" d="M117 301q0 88 22 186l133 619h236l-102 -467q111 25 231 25q169 0 258.5 -78.5t89.5 -206t-58 -215t-167.5 -136t-282.5 -48.5t-266.5 84.5t-93.5 236.5zM348 313q0 -157 178 -157q106 0 166 50.5t60 137.5q0 143 -183 143q-91 0 -198 -20q-23 -110 -23 -154z" />
<glyph unicode="&#x44d;" horiz-adv-x="961" d="M25 31v202q134 -61 256 -61t207.5 74.5t117.5 228.5h-426l35 176h414v33q0 250 -209 250q-94 0 -225 -57l-66 174q159 75 342 75t289 -114.5t106 -327.5t-69 -372t-201 -245.5t-303 -86.5t-268 51z" />
<glyph unicode="&#x44e;" horiz-adv-x="1655" d="M47 0l238 1106h233l-94 -444h221q61 221 194.5 341.5t321 120.5t293 -114.5t105.5 -317t-68 -367t-190.5 -254t-298.5 -89.5t-282 113.5t-106 310.5l2 71h-231l-102 -477h-236zM848 419q0 -245 184 -245q80 0 146.5 68.5t104.5 190.5t38 250.5t-46.5 187.5t-129 59 t-149.5 -67.5t-107.5 -194.5t-40.5 -249z" />
<glyph unicode="&#x44f;" horiz-adv-x="1135" d="M-33 2v191q36 -13 72 -13t67 27t74.5 110.5t86.5 124.5t95 58q-174 59 -174 235t121.5 273.5t333.5 97.5h440l-233 -1106h-234l93 424h-101q-63 0 -107.5 -33t-100 -142t-98.5 -162q-82 -103 -220 -103q-71 0 -115 18zM424 745q0 -145 180 -145h141l68 326h-186 q-94 0 -148.5 -48t-54.5 -133z" />
<glyph unicode="&#x450;" horiz-adv-x="1075" d="M94 400.5q0 198.5 77.5 369t210 263.5t295 93t252 -72.5t89.5 -205.5q0 -182 -166.5 -284.5t-474.5 -102.5h-43l-2 -31v-29q0 -111 56.5 -174t179.5 -63t300 84v-187q-177 -81 -365 -81t-298.5 111t-110.5 309.5zM362 633h29q188 0 294 53.5t106 151.5q0 51 -32 79.5 t-95 28.5q-96 0 -180.5 -86t-121.5 -227zM395 1548v21h245q47 -154 132 -303v-25h-144q-65 63 -132 151.5t-101 155.5z" />
<glyph unicode="&#x451;" horiz-adv-x="1075" d="M94 400.5q0 198.5 77.5 369t210 263.5t295 93t252 -72.5t89.5 -205.5q0 -182 -166.5 -284.5t-474.5 -102.5h-43l-2 -31v-29q0 -111 56.5 -174t179.5 -63t300 84v-187q-177 -81 -365 -81t-298.5 111t-110.5 309.5zM362 633h29q188 0 294 53.5t106 151.5q0 51 -32 79.5 t-95 28.5q-96 0 -180.5 -86t-121.5 -227zM384 1380q0 60 35 98t98 38q105 0 105 -95q0 -65 -35.5 -102t-88.5 -37q-114 0 -114 98zM767 1380q0 60 35 98t98 38q105 0 105 -95q0 -65 -35.5 -102t-87.5 -37q-115 0 -115 98z" />
<glyph unicode="&#x452;" horiz-adv-x="1208" d="M47 0l258 1219h-155l36 163h154l37 174h235l-37 -174h324l-35 -163h-321l-17 -74q-21 -112 -71 -266h8q149 198 344 198q136 0 208 -78.5t72 -222.5q0 -76 -22 -172l-158 -743q-38 -183 -128.5 -268t-237.5 -85q-94 0 -148 23v193q59 -23 117 -23q129 0 168 188l156 734 q18 79 18 127q0 135 -127 135q-112 0 -209.5 -125t-142.5 -342l-90 -418h-236z" />
<glyph unicode="&#x453;" horiz-adv-x="958" d="M37 274q0 170 155 272q76 50 227 105t199 96t48 93q0 102 -132 102t-290 -74l-60 174q189 84 366 84t265 -71t88 -196.5t-71.5 -206.5t-247.5 -148q-178 -59 -240.5 -107.5t-62.5 -115.5q0 -119 168 -119q132 0 319 86v-189q-170 -79 -353.5 -79t-280.5 77t-97 217z M514 1241v25q97 108 225 303h264v-19q-54 -66 -158 -161.5t-175 -147.5h-156z" />
<glyph unicode="&#x454;" horiz-adv-x="954" d="M94 396q0 202 75 375t205.5 264t298 91t300.5 -61l-70 -184q-122 53 -227.5 53t-187.5 -75.5t-121 -207.5h419l-38 -176h-414l-2 -36v-38q0 -106 53 -168.5t163.5 -62.5t262.5 76v-195q-140 -71 -321 -71t-288.5 107t-107.5 309z" />
<glyph unicode="&#x455;" horiz-adv-x="922" d="M14 47v203q153 -90 312 -90q97 0 157 40t60 100t-34.5 96.5t-150.5 100.5t-167.5 133.5t-51.5 164.5q0 155 107 243t296 88t339 -84l-76 -176q-140 76 -266 76q-73 0 -118.5 -33t-45.5 -85t33 -87t136.5 -92t147.5 -99q90 -86 90 -206q0 -173 -118 -266.5t-318 -93.5 t-332 67z" />
<glyph unicode="&#x456;" horiz-adv-x="563" d="M47 0l236 1106h235l-235 -1106h-236zM330 1384q0 62 39 104t101 42q128 0 128 -107q0 -71 -40 -112t-105 -41q-123 0 -123 114z" />
<glyph unicode="&#x457;" horiz-adv-x="563" d="M47 0l236 1106h235l-235 -1106h-236zM142 1380q0 60 35 98t98 38q105 0 105 -95q0 -65 -35.5 -102t-88.5 -37q-114 0 -114 98zM525 1380q0 60 35 98t98 38q105 0 105 -95q0 -65 -35.5 -102t-87.5 -37q-115 0 -115 98z" />
<glyph unicode="&#x458;" horiz-adv-x="563" d="M-262 -279q64 -20 117 -20q131 0 170 186l260 1219h233l-266 -1247q-38 -181 -127.5 -266t-237.5 -85q-90 0 -149 23v190zM332 1378q0 68 38 110t100 42q128 0 128 -107q0 -71 -40 -112t-105 -41q-121 0 -121 108z" />
<glyph unicode="&#x459;" horiz-adv-x="1663" d="M-78 2v197q34 -15 79 -15t81.5 30.5t69 93t105.5 278.5t119 302t102 136q109 96 288 96t307 -45l-92 -436q128 25 219 25q163 0 253.5 -78t90.5 -206.5t-56.5 -216t-164 -135.5t-276.5 -48t-263 84t-94 235q0 77 25 188l92 435q-33 6 -73.5 6t-81.5 -30t-77 -99.5 t-115.5 -309t-132.5 -329.5q-106 -178 -292 -178q-62 0 -113 20zM924 313q0 -157 170 -157q99 0 158 50.5t59 137.5q0 143 -175 143q-86 0 -190 -20q-22 -104 -22 -154z" />
<glyph unicode="&#x45a;" horiz-adv-x="1714" d="M53 0l238 1106h233l-94 -444h375l94 444h234l-101 -467q131 25 219 25q163 0 253.5 -78t90.5 -206.5t-56.5 -216t-164 -135.5t-276.5 -48t-263 84t-94 235q0 63 23 178h-373l-102 -477h-236zM975 313q0 -157 170 -157q99 0 158 50.5t59 137.5q0 143 -174 143 q-87 0 -191 -20q-22 -104 -22 -154z" />
<glyph unicode="&#x45b;" horiz-adv-x="1208" d="M47 0l260 1219h-157l36 163h154l37 174h235l-37 -174h324l-35 -163h-323l-84 -328h8q156 199 344 199q278 0 278 -314q0 -56 -20 -160l-131 -616h-234l136 635q16 71 16 127q0 131 -121 131q-73 0 -146.5 -57.5t-130 -162t-83.5 -241.5l-90 -432h-236z" />
<glyph unicode="&#x45c;" horiz-adv-x="1079" d="M47 0l236 1106h233l-110 -524l479 524h278l-514 -551l326 -555h-270l-308 545l-114 -545h-236zM608 1241v25q97 108 225 303h264v-19q-54 -66 -158 -161.5t-175 -147.5h-156z" />
<glyph unicode="&#x45d;" horiz-adv-x="1208" d="M111 274q0 63 12 124.5t24 123.5l123 584h236l-129 -610q-31 -141 -31 -193q0 -133 127 -133q72 0 143 57q150 120 211 410l99 469h233l-233 -1106h-185l21 205h-8q-159 -225 -363 -225q-134 0 -207 76t-73 218zM440 1548v21h245q47 -154 132 -303v-25h-144 q-65 63 -132 151.5t-101 155.5z" />
<glyph unicode="&#x45e;" horiz-adv-x="1004" d="M-170 -285q75 -16 137 -16t122 43.5t124 155.5l51 92l-164 1116h232l63 -531q23 -158 23 -356h6q86 215 135 313l293 574h254l-688 -1280q-90 -165 -196 -241.5t-249 -76.5q-76 0 -143 19v188zM249 1518q0 28 8 57h205l-4 -53q0 -133 172 -133q106 0 161.5 44.5 t75.5 141.5h217q-39 -174 -153.5 -254t-304.5 -80q-377 0 -377 277z" />
<glyph unicode="&#x45f;" horiz-adv-x="1208" d="M109 274q0 68 26 193l135 639h236l-144 -674q-16 -76 -16 -129q0 -133 127 -133q112 0 210.5 127.5t143.5 339.5l99 469h233l-233 -1106h-185l21 205h-8q-159 -225 -363 -225q-134 0 -208 76t-74 218zM289 -492l80 359l194 76h45l-94 -435h-225z" />
<glyph unicode="&#x460;" horiz-adv-x="2023" d="M139 513.5q0 260.5 91 495.5q181 472 569 472q176 0 293 -97l-109 -176q-102 72 -184 72q-112 0 -204 -102t-151 -287t-59 -379q0 -328 227 -328q103 0 161.5 65.5t86.5 188.5l53 246h238l-41 -203q-18 -86 -18 -149.5t40.5 -105.5t120.5 -42q261 0 393 402 q68 205 68 413q0 281 -188 281q-53 0 -98.5 -21t-98.5 -53l-88 178q147 97 329.5 97t286 -122.5t103.5 -336.5t-54.5 -410.5t-151.5 -344.5q-187 -287 -497 -287q-236 0 -325 180q-62 -96 -147 -138t-205 -42q-210 0 -325.5 136.5t-115.5 397z" />
<glyph unicode="&#x461;" horiz-adv-x="1585" d="M102 1106h234l63 -625q12 -104 16 -204l3 -74l297 495l-45 408h229l54 -666l16 -227q144 160 236.5 358.5t166.5 534.5h238q-70 -361 -211.5 -626t-374.5 -480h-231l-45 422h-5l-243 -422h-262z" />
<glyph unicode="&#x462;" horiz-adv-x="1276" d="M135 1122l43 193h275l51 241h239l-53 -241h332l-41 -193h-332l-53 -254h104q226 0 344.5 -97t118.5 -286q0 -235 -161.5 -360t-464.5 -125h-363l238 1122h-277zM453 201h108q177 0 268 71.5t91 186.5t-58.5 161t-179.5 46h-129z" />
<glyph unicode="&#x463;" horiz-adv-x="1182" d="M76 920l39 186h233l45 213h234l-45 -213h286l-39 -186h-286l-62 -281q109 25 253 25t235.5 -77.5t91.5 -206t-59 -217t-170 -136t-283.5 -47.5t-265.5 85t-93 236q0 77 25 188l92 431h-231zM424 313q0 -157 176 -157q106 0 166.5 51t60.5 137q0 143 -184 143 q-90 0 -197 -20q-22 -104 -22 -154z" />
<glyph unicode="&#x464;" horiz-adv-x="1790" d="M70 0l309 1462h237l-127 -598h256q83 293 278 456t464 163q215 0 391 -92l-96 -195q-150 82 -308 82t-288 -111.5t-189 -302.5h576l-41 -202h-578q-8 -46 -8 -117q0 -172 83 -266.5t226 -94.5t349 68v-205q-175 -67 -379 -67q-247 0 -386 146t-139 415q0 64 7 118h-261 l-139 -659h-237z" />
<glyph unicode="&#x465;" horiz-adv-x="1470" d="M47 0l238 1106h233l-94 -444h223q64 220 206 342t320.5 122t315.5 -61l-70 -184q-127 53 -225.5 53t-179.5 -71.5t-125 -200.5h414l-39 -187h-414q-4 -31 -4 -74q0 -109 56.5 -170t165.5 -61t259 76v-195q-140 -71 -321.5 -71t-288.5 106t-107 305l4 86h-229l-102 -477 h-236z" />
<glyph unicode="&#x466;" horiz-adv-x="1300" d="M-121 0l834 1464h258l221 -1464h-227l-88 659h-84l-136 -659h-219l142 659h-86l-365 -659h-250zM604 854h246l-16 123q-24 148 -27 270q-53 -121 -203 -393z" />
<glyph unicode="&#x467;" horiz-adv-x="1135" d="M-109 0l650 1106h286l189 -1106h-223l-68 459h-66l-90 -459h-215l105 459h-68l-260 -459h-240zM489 631h213q-31 193 -45 311q-55 -108 -168 -311z" />
<glyph unicode="&#x468;" horiz-adv-x="1806" d="M70 0l309 1462h233l-127 -598h392l342 600h260l219 -1464h-228l-88 659h-84l-135 -659h-219l141 659h-86l-362 -659h-252l377 659h-320l-139 -659h-233zM1110 854h246q-35 263 -43 395q-61 -139 -203 -395z" />
<glyph unicode="&#x469;" horiz-adv-x="1593" d="M47 0l236 1106h221l-94 -444h327l262 444h287l189 -1106h-224l-69 477h-60l-94 -477h-215l107 477h-60l-270 -477h-242l281 477h-258l-103 -477h-221zM965 659h192l-39 283z" />
<glyph unicode="&#x46a;" horiz-adv-x="1423" d="M-84 0l229 492q61 129 117 196q110 133 301 154l-239 481l28 139h1116l-28 -141l-455 -485q175 -27 233 -176q29 -74 37 -209l29 -451h-235l-25 455q-7 121 -41 168t-109 47h-14l-137 -670h-240l140 670h-11q-85 0 -137.5 -46.5t-107.5 -168.5l-205 -455h-246zM590 1257 l186 -387l340 387h-526z" />
<glyph unicode="&#x46b;" horiz-adv-x="1210" d="M-106 0l188 367q73 143 152 202t200 76l-211 356l21 105h958l-22 -105l-363 -358q132 -32 179 -145q24 -57 38 -168l43 -330h-211l-35 324q-9 87 -39 125.5t-96 42.5l-102 -492h-211l106 492q-69 0 -113 -32.5t-89 -119.5l-170 -340h-223zM471 930l150 -268l247 268h-397 z" />
<glyph unicode="&#x46c;" horiz-adv-x="1946" d="M70 0l309 1462h237l-127 -598h582l-229 459l28 139h1117l-29 -141l-457 -485q94 -19 150 -61.5t84 -117t37 -213.5t28 -444h-233l-23 455q-9 215 -153 215h-13l-139 -670h-240l142 670h-13q-81 0 -132 -43t-109 -168l-207 -459h-248l213 455q65 138 127 204h-326 l-139 -659h-237zM1106 1257l186 -387l340 387h-526z" />
<glyph unicode="&#x46d;" horiz-adv-x="1667" d="M47 0l236 1106h221l-94 -444h479l-203 339l21 105h958l-20 -105l-365 -358q134 -35 182 -148q24 -58 37 -165l43 -330h-211l-35 324q-9 87 -39.5 125.5t-97.5 42.5l-102 -492h-211l106 492q-69 0 -112 -31.5t-88 -122.5l-170 -338h-226l181 348q47 90 96 129h-262 l-103 -477h-221zM936 930l147 -268l250 268h-397z" />
<glyph unicode="&#x46e;" horiz-adv-x="1155" d="M-76 -164q0 154 103.5 230t347 107.5t327.5 95.5t84 179.5t-83.5 164.5t-237.5 49h-178l41 190h164q190 0 291.5 67t101.5 189q0 90 -55 135t-154 45q-173 0 -357 -121l-90 166q184 118 369 142q-38 74 -149 241v25h143q106 -116 151 -178q78 89 119 123q85 71 174 71 q50 0 90 -14v-131q-40 8 -70.5 8t-68 -29t-119.5 -125q125 -30 193.5 -114.5t68.5 -200.5q0 -160 -104 -263t-289 -128v-4q136 -18 215.5 -101.5t79.5 -218.5q0 -203 -143 -316.5t-457 -144.5q-162 -17 -216 -41.5t-54 -76.5q0 -78 125 -78l325 10q107 0 174 -35v-198 q-65 38 -180 38l-366 -8q-149 0 -232.5 68.5t-83.5 181.5z" />
<glyph unicode="&#x46f;" horiz-adv-x="993" d="M-94 -143.5q0 122.5 93 196t318 105.5q139 20 199 42q121 45 121 154q0 131 -193 131h-161l36 179h115q149 0 210 40t61 121q0 117 -164 117q-126 0 -295 -74l-64 174q143 59 256 74q-40 77 -133 209v27h144q77 -82 149 -176q100 118 161 156t119 38t103 -16v-131 q-30 10 -67 10t-75 -28t-96 -99q197 -56 197 -246q0 -108 -67.5 -180.5t-192.5 -99.5v-7q93 -24 140.5 -83t47.5 -156t-54.5 -169.5t-158.5 -116.5t-279 -67.5t-218 -48t-43 -67.5q0 -76 125 -76l297 10q111 0 168 -39v-186q-67 39 -168 39l-332 -8q-141 0 -220 64.5 t-79 187z" />
<glyph unicode="&#x470;" horiz-adv-x="1587" d="M188 838q0 83 23 202l90 422h236l-95 -450q-18 -96 -18 -150q0 -117 63.5 -170t194.5 -53h16l174 823h230l-174 -823h16q170 0 262 84t127 256l103 483h239l-108 -508q-55 -263 -217.5 -388.5t-434.5 -125.5h-28l-94 -440h-230l94 440h-14q-217 0 -336 105.5t-119 292.5z " />
<glyph unicode="&#x471;" horiz-adv-x="1559" d="M131 367q0 61 10 125l129 614h234l-119 -563q-18 -93 -18 -175.5t54.5 -138.5t156.5 -63l292 1388h228l-293 -1384q224 28 328 247.5t104 688.5h236q0 -400 -75.5 -635t-232 -353.5t-401.5 -137.5l-100 -472h-228l101 472q-200 17 -303 117t-103 270z" />
<glyph unicode="&#x472;" horiz-adv-x="1485" d="M135 544.5q0 265.5 98.5 486t269.5 337.5t405 117t373.5 -149t139.5 -421t-95 -490t-261.5 -331.5t-406 -113.5t-381.5 149.5t-142 415zM381 545q0 -171 82 -266t233 -95t272.5 121.5t174.5 339.5h-756q-6 -44 -6 -100zM424 848h747q5 35 5 72q0 169 -80.5 264.5 t-228 95.5t-267.5 -114.5t-176 -317.5z" />
<glyph unicode="&#x473;" horiz-adv-x="1174" d="M94 409.5q0 197.5 71.5 363.5t200.5 258.5t310 92.5t292 -113.5t111 -314t-74 -369.5t-201 -257t-304.5 -88t-291.5 115t-114 312.5zM328 401q0 -111 51.5 -171t149 -60t175.5 81.5t113 221.5h-485q-4 -27 -4 -72zM365 651h479v51q0 232 -193 232q-96 0 -172 -76.5 t-114 -206.5z" />
<glyph unicode="&#x474;" horiz-adv-x="1237" d="M186 1462h232l74 -893q11 -154 11 -249l-1 -70h6q51 150 125 307l244 516q98 203 150.5 271t114.5 99.5t138 31.5t145 -23v-192q-47 18 -103 18t-102 -51t-110 -178l-520 -1049h-260z" />
<glyph unicode="&#x475;" horiz-adv-x="1010" d="M98 1106h234l55 -586q9 -110 14 -305h7q49 139 122 291l148 309q63 131 109 188q90 111 231 111q62 0 104 -18v-178q-36 12 -77.5 12t-72 -34t-59.5 -93l-405 -803h-277z" />
<glyph unicode="&#x476;" horiz-adv-x="1237" d="M186 1462h232l74 -893q11 -154 11 -249l-1 -70h6q51 150 125 307l244 516q98 203 150.5 271t114.5 99.5t138 31.5t145 -23v-192q-47 18 -103 18t-102 -51t-110 -178l-520 -1049h-260zM321 1886v21h234q42 -150 131 -303v-25h-133q-60 60 -129 149.5t-103 157.5zM686 1886 v21h233q42 -150 131 -303v-25h-133q-64 64 -131.5 153.5t-99.5 153.5z" />
<glyph unicode="&#x477;" horiz-adv-x="1010" d="M98 1106h234l55 -586q9 -110 14 -305h7q49 139 122 291l148 309q63 131 109 188q90 111 231 111q62 0 104 -18v-178q-36 12 -77.5 12t-72 -34t-59.5 -93l-405 -803h-277zM151 1548v21h234q42 -150 131 -303v-25h-133q-60 60 -129 149.5t-103 157.5zM516 1548v21h233 q42 -150 131 -303v-25h-133q-64 64 -131.5 153.5t-99.5 153.5z" />
<glyph unicode="&#x478;" horiz-adv-x="2482" d="M135 544.5q0 265.5 98.5 486t269.5 337.5t405 117t373.5 -149t139.5 -421t-95 -490t-261.5 -331.5t-406 -113.5t-381.5 149.5t-142 415zM383 559.5q0 -187.5 81.5 -281.5t223.5 -94t252.5 95.5t172 265t61.5 357.5t-79 283t-220 95t-253 -96t-175.5 -266.5t-63.5 -358z M1309 -285q75 -16 137 -16t122 43.5t124 155.5l51 92l-164 1116h232l63 -531q23 -158 23 -356h6q86 215 135 313l293 574h254l-688 -1280q-90 -165 -196 -241.5t-249 -76.5q-76 0 -143 19v188z" />
<glyph unicode="&#x479;" horiz-adv-x="2114" d="M94 409q0 198 71.5 364t200.5 258.5t311 92.5t292 -116t110 -317t-73 -366.5t-200.5 -254t-306.5 -88.5t-292 114.5t-113 312.5zM332 417q0 -243 196 -243q90 0 162 68t112 190.5t40 249.5q0 248 -189 248q-93 0 -166.5 -71.5t-114 -194t-40.5 -247.5zM940 -285 q75 -16 137 -16t122 43.5t124 155.5l51 92l-164 1116h232l63 -531q23 -158 23 -356h6q86 215 135 313l293 574h254l-688 -1280q-90 -165 -196 -241.5t-249 -76.5q-76 0 -143 19v188z" />
<glyph unicode="&#x47a;" horiz-adv-x="1532" d="M135 577.5q0 233.5 82.5 430.5t231 318.5t342.5 148.5q33 110 147 110q59 0 91 -31.5t34 -87.5q191 -41 298 -191t107 -389t-78.5 -434.5t-226.5 -316.5t-348 -147q-17 -59 -51.5 -86t-94 -27t-91 33.5t-33.5 89.5q-196 42 -303 194t-107 385.5zM383 584q0 -300 201 -375 q49 72 140 72t114 -78q172 47 277.5 235.5t105.5 459.5t-197 355q-49 -75 -142 -75t-116 82q-170 -51 -276.5 -238t-106.5 -438z" />
<glyph unicode="&#x47b;" horiz-adv-x="1239" d="M94 432q0 175 58 320t168 240.5t255 121.5q30 90 134 90q97 0 110 -92q155 -34 240.5 -150t85.5 -290q0 -269 -126 -452.5t-345 -227.5q-31 -103 -137 -103q-51 0 -80.5 28.5t-32.5 76.5q-155 30 -242.5 146.5t-87.5 291.5zM332 430q0 -195 125 -237q47 65 119.5 65 t105.5 -61q102 42 162.5 171t60.5 312q0 179 -112 229q-42 -73 -125 -73t-105 69q-104 -46 -167.5 -176t-63.5 -299z" />
<glyph unicode="&#x47c;" horiz-adv-x="2023" d="M139 514q0 258 86 490.5t232.5 354.5t332 122t302.5 -97l-109 -176q-102 72 -184 72q-115 0 -206.5 -103t-149.5 -287t-58 -378q0 -328 229 -328q86 0 175 46.5t161 129.5q116 -176 293 -176q141 0 244 112.5t165 310.5t62 392q0 281 -188 281q-53 0 -98.5 -21t-98.5 -53 l-88 178q147 97 329.5 97t286 -122.5t103.5 -376.5t-96 -502q-193 -500 -617 -500q-200 0 -329 120q-158 -120 -355.5 -120t-310.5 138t-113 396zM877 1868q20 139 95.5 207.5t192.5 68.5q83 0 229.5 -59.5t235.5 -59.5h29l-33 -157h-33q-110 0 -246 56q-51 21 -96.5 38.5 t-93.5 17.5q-92 0 -119 -112h-161zM1067 1522l8 84q125 35 125 96q0 17 -10 25t-38 21q-48 22 -48 67q0 81 108 81q63 0 102.5 -35.5t39.5 -97.5q0 -94 -70.5 -157t-216.5 -84z" />
<glyph unicode="&#x47d;" horiz-adv-x="1632" d="M94 405q0 206 68 378q137 343 454 343q122 0 224 -61l-76 -172q-69 45 -139 45q-125 0 -209 -152t-84 -385t182 -233q113 0 244 111q94 -111 229.5 -111t224 156.5t88.5 404.5q0 209 -133 209q-66 0 -155 -43l-51 170q120 61 265 61t228.5 -100.5t83.5 -311t-69 -385 t-191 -262t-280.5 -87.5t-262.5 83q-121 -83 -264 -83q-181 0 -279 109.5t-98 315.5zM623 1556q20 140 95.5 208.5t192.5 68.5q62 0 118.5 -18.5t112 -40t112.5 -40t122 -18.5h29l-33 -157h-33q-112 0 -246 55q-51 21 -96.5 38t-93.5 17q-92 0 -119 -113h-161zM817 1210 l8 84q125 36 125 99q0 17 -10 25t-30 17t-38 22.5t-18 45.5q0 84 109 84q63 0 102 -36.5t39 -114t-70 -141t-217 -85.5z" />
<glyph unicode="&#x47e;" horiz-adv-x="2023" d="M139 513.5q0 260.5 91 495.5q181 472 569 472q176 0 293 -97l-109 -176q-102 72 -184 72q-112 0 -204 -102t-151 -287t-59 -379q0 -328 227 -328q103 0 161.5 65.5t86.5 188.5l53 246h238l-41 -203q-18 -86 -18 -149.5t40.5 -105.5t120.5 -42q261 0 393 402 q68 205 68 413q0 281 -188 281q-53 0 -98.5 -21t-98.5 -53l-88 178q147 97 329.5 97t286 -122.5t103.5 -336.5t-54.5 -410.5t-151.5 -344.5q-187 -287 -497 -287q-236 0 -325 180q-62 -96 -147 -138t-205 -42q-210 0 -325.5 136.5t-115.5 397zM815 1769l12 54h824l-13 -54 l-116 -172h-49l-27 103h-162l-70 -103h-49l-26 103h-162l-70 -103h-49z" />
<glyph unicode="&#x47f;" horiz-adv-x="1585" d="M102 1106h234l63 -625q12 -104 16 -204l3 -74l297 495l-45 408h229l54 -666l16 -227q144 160 236.5 358.5t166.5 534.5h238q-70 -361 -211.5 -626t-374.5 -480h-231l-45 422h-5l-243 -422h-262zM492 1423l10 54h823l-10 -54l-117 -172h-51l-25 103h-161l-70 -103h-51 l-25 103h-162l-71 -103h-50z" />
<glyph unicode="&#x480;" horiz-adv-x="1225" d="M135 546.5q0 256.5 105.5 481t282 340t396.5 115.5t394 -92l-94 -195q-152 82 -301.5 82t-271 -91t-192.5 -264t-71 -362.5t84 -282t240 -92.5q93 0 198 33l-149 -711h-240l102 474q-229 12 -356 160t-127 404.5z" />
<glyph unicode="&#x481;" horiz-adv-x="954" d="M94 400q0 198 76.5 371t207.5 264t296.5 91t298.5 -61l-70 -184q-122 53 -221 53t-179.5 -71t-125.5 -195t-45 -249.5t56.5 -184t157.5 -58.5t197 45l-151 -713h-236l105 474q-172 8 -269.5 114t-97.5 304z" />
<glyph unicode="&#x482;" horiz-adv-x="1247" d="M111 547l69 123l287 -164l199 346l-285 164l72 125l284 -164l183 313l127 -73l-183 -316l287 -164l-74 -123l-282 164l-201 -346l285 -166l-72 -123l-285 164l-180 -313l-129 74l180 315z" />
<glyph unicode="&#x483;" horiz-adv-x="1120" d="M319 1260q0 48 34.5 83t103.5 35h436q23 95 113 95q46 0 69 -23t23 -72t-33 -87t-102 -40h-437q-27 -94 -114 -94q-45 0 -69 27.5t-24 75.5z" />
<glyph unicode="&#x484;" horiz-adv-x="1161" d="M346 1247l33 158h16q120 0 267 59q150 58 244 58t152 -52.5t58 -150.5q0 -35 -6 -72h-154l2 20v17q0 76 -86 76q-42 0 -92 -17.5t-111 -38.5q-160 -57 -294 -57h-29z" />
<glyph unicode="&#x485;" horiz-adv-x="1161" d="M618 1444q0 77 44 118.5t104 41.5q111 0 111 -84q0 -48 -55.5 -70.5t-55.5 -54.5q0 -53 106 -86v-80q-121 21 -187.5 79.5t-66.5 135.5z" />
<glyph unicode="&#x486;" horiz-adv-x="1161" d="M616 1229v82q132 36 132 98q0 17 -11 25t-31 17t-37.5 23t-17.5 46q0 84 109 84q63 0 102 -37t39 -99q0 -198 -285 -239z" />
<glyph unicode="&#x488;" horiz-adv-x="2025" d="M41 459q5 90 55.5 142t148 52t155 -51t63.5 -143h-80q-5 45 -35 66.5t-103 21.5t-98 -19.5t-30 -68.5h-76zM219 -41q5 90 55.5 142.5t148 52.5t155 -51t63.5 -144h-80q-5 45 -35 66.5t-103 21.5t-98 -19.5t-30 -68.5h-76zM219 946q5 90 55.5 142.5t148 52.5t155 -51 t63.5 -144h-80q-5 45 -35 66.5t-103 21.5t-98 -19.5t-30 -68.5h-76zM793 -319q5 89 55 141.5t147.5 52.5t155 -51t63.5 -143h-79q-5 44 -35 66t-103.5 22t-98.5 -20.5t-30 -67.5h-75zM793 1231q11 194 208 194q93 0 149.5 -50.5t63.5 -143.5h-79q-5 44 -35 66t-103.5 22 t-98.5 -20.5t-30 -67.5h-75zM1372 -41q5 90 55.5 142.5t148 52.5t155 -51t63.5 -144h-80q-5 45 -35 66.5t-103 21.5t-98 -19.5t-30 -68.5h-76zM1372 946q5 90 55.5 142.5t148 52.5t155 -51t63.5 -144h-80q-5 45 -35 66.5t-103 21.5t-98 -19.5t-30 -68.5h-76zM1563 459 q11 194 209 194q92 0 149.5 -52t63.5 -142h-80q-5 44 -35 66t-103 22t-98.5 -20t-30.5 -68h-75z" />
<glyph unicode="&#x489;" horiz-adv-x="1958" d="M41 565v97q221 -53 350 -70v-139l-14 -11q-152 39 -336 123zM238 -55q177 110 297 198l98 -98l-2 -16q-116 -72 -324 -152zM324 1202l67 70q123 -198 199 -297l-98 -98l-17 2q-37 61 -86 169t-65 154zM870 -385q53 221 70 350h139l11 -14q-39 -152 -123 -336h-97z M870 1155q48 178 123 336h97q-52 -220 -70 -350h-139zM1325 1018l2 16q124 74 324 152l69 -68q-177 -110 -297 -198zM1366 86l98 98l17 -2q66 -104 151 -323l-67 -70q-101 163 -199 297zM1567 512v139l14 11q178 -48 336 -123v-97q-221 53 -350 70z" />
<glyph unicode="&#x48a;" horiz-adv-x="1561" d="M70 0l309 1462h221q-215 -1013 -248 -1128h8l852 1128h285l-266 -1253h239l-280 -612h-275l252 403h-198l159 756q47 232 89 391l-7 2l-854 -1149h-286zM575 1851q0 27 9 60h204l-4 -53q0 -134 172 -134q104 0 159.5 43t78.5 144h217q-38 -173 -152 -254.5t-305 -81.5 q-379 0 -379 276z" />
<glyph unicode="&#x48b;" horiz-adv-x="1237" d="M109 274q0 77 38 248l123 584h236l-144 -674q-16 -76 -16 -129q0 -133 127 -133q72 0 143 57q150 120 211 410l99 469h233l-194 -922h206l-249 -573h-236l209 389h-164l23 190h-9q-154 -210 -354 -210q-133 0 -207.5 75.5t-74.5 218.5zM365 1518q0 28 8 57h205l-5 -53 q0 -133 172 -133q104 0 160 43.5t78 142.5h217q-39 -174 -153.5 -254t-304.5 -80q-377 0 -377 277z" />
<glyph unicode="&#x48c;" horiz-adv-x="1171" d="M70 0l231 1092h-151l43 202h149l37 168h237l-36 -168h276l-45 -202h-274l-45 -224h104q229 0 345 -98t116 -285q0 -235 -161.5 -360t-463.5 -125h-362zM348 201h109q176 0 267 71.5t91 186.5t-58.5 161t-178.5 46h-129z" />
<glyph unicode="&#x48d;" horiz-adv-x="1110" d="M121 301q0 88 22 186l144 670h-154l35 164h154l51 235h233l-51 -235h285l-35 -164h-285l-110 -518q109 25 252.5 25t235 -77.5t91.5 -206t-58 -216.5q-121 -184 -429 -184q-186 0 -283.5 80.5t-97.5 240.5zM352 313q0 -157 178 -157q107 0 166.5 52t59.5 136 q0 143 -183 143q-89 0 -198 -20q-23 -101 -23 -154z" />
<glyph unicode="&#x48e;" horiz-adv-x="1174" d="M70 0l309 1462h334q461 0 461 -401q0 -298 -246 -432l67 -142l-151 -73l-76 157q-105 -24 -236 -24h-110l-115 -547h-237zM465 748h94q76 0 123 10l-59 129l149 71l62 -131q98 78 98 226q0 109 -59 159t-181 50h-119z" />
<glyph unicode="&#x48f;" horiz-adv-x="1200" d="M-55 -492l338 1598h184l-21 -188h9q157 208 344 208q143 0 224 -103t81 -301.5t-79.5 -387t-211.5 -279.5l66 -141l-152 -72l-70 146q-45 -8 -79 -8q-183 0 -271 176h-8q-11 -133 -35 -236l-86 -412h-233zM369 392q0 -222 168 -222l34 4l-65 141l149 72l60 -129 q70 80 110.5 208.5t40.5 266.5q0 201 -155 201q-84 0 -165 -83t-129 -213.5t-48 -245.5z" />
<glyph unicode="&#x490;" horiz-adv-x="1001" d="M70 0l309 1462h551l65 303h217l-106 -508h-535l-266 -1257h-235z" />
<glyph unicode="&#x491;" horiz-adv-x="866" d="M47 0l236 1106h428l67 313h226l-107 -499h-420l-194 -920h-236z" />
<glyph unicode="&#x492;" horiz-adv-x="997" d="M53 623l43 200h148l135 639h770l-43 -205h-535l-92 -434h318l-43 -200h-318l-131 -623h-235l131 623h-148z" />
<glyph unicode="&#x493;" horiz-adv-x="866" d="M0 453l37 180h145l101 473h655l-43 -195h-420l-59 -278h266l-39 -180h-264l-96 -453h-236l98 453h-145z" />
<glyph unicode="&#x494;" horiz-adv-x="1298" d="M70 0l309 1462h774l-43 -205h-539l-98 -464q64 16 152 16q233 0 367 -148.5t134 -387t-80.5 -414.5t-229.5 -273.5t-327.5 -97.5t-293.5 47v209q127 -53 255.5 -53t226 69.5t151 198t53.5 294.5t-83 259.5t-239 93.5q-87 0 -127 -10l-127 -596h-235z" />
<glyph unicode="&#x495;" horiz-adv-x="1090" d="M47 0l236 1106h659l-41 -195h-426l-61 -290q78 18 133 18q174 0 275.5 -122.5t101.5 -330t-70.5 -367.5t-197.5 -240.5t-277 -80.5t-236 47v213q98 -57 207 -57q155 0 244.5 128.5t89.5 344.5q0 131 -55 199.5t-154 68.5q-61 0 -104 -16l-88 -426h-236z" />
<glyph unicode="&#x496;" horiz-adv-x="1782" d="M-113 0l652 774l-322 688h244l313 -692l148 692h229l-147 -692l587 692h267l-627 -729l244 -532h196l-129 -604h-231l86 403h-84l-320 725l-151 -725h-230l152 723l-602 -723h-275z" />
<glyph unicode="&#x497;" horiz-adv-x="1841" d="M-29 -6l37 188q48 -12 90 -12q95 0 170 71t117.5 194t42.5 251q0 248 -170 248q-56 0 -117 -21v191q76 22 158 22q173 0 269 -111t96 -315q0 -27 -5 -65h168l101 471h221l-102 -471h159q55 229 196.5 360t336.5 131q83 0 137 -14l-41 -188q-44 10 -94 10 q-90 0 -163.5 -65.5t-118 -190t-44.5 -254.5q0 -254 172 -254q78 0 154 29l-125 -588h-221l84 375q-144 18 -221.5 124.5t-77.5 292.5v33l2 33h-170l-101 -469h-219l101 469h-158q-54 -227 -196 -358t-339 -131q-68 0 -129 14z" />
<glyph unicode="&#x498;" horiz-adv-x="1155" d="M16 59v213q183 -100 380 -100t293.5 73t96.5 194.5t-83.5 172t-237.5 50.5h-178l41 190h164q190 0 291.5 68t101.5 188q0 90 -55 135t-154 45q-173 0 -357 -121l-90 166q125 82 243 116t278 34t270 -91t110 -246t-104 -258t-289 -128v-4q137 -18 216 -103t79 -217 q0 -214 -162 -335t-429 -121t-425 79zM239 -303q44 -16 93.5 -16t77.5 27t28 81q0 92 -90 211h151q115 -115 115 -232t-66 -176t-161 -59t-148 21v143z" />
<glyph unicode="&#x499;" horiz-adv-x="983" d="M10 51v203q170 -88 321 -88t222.5 47.5t71.5 125t-46.5 112t-146.5 34.5h-162l39 179h111q146 0 210 40t64 121q0 117 -164 117q-124 0 -297 -74l-61 174q196 84 382 84t280 -70t94 -188q0 -231 -258 -288v-7q188 -48 188 -225.5t-133.5 -272.5t-354 -95t-360.5 71z M178 -303q44 -16 93.5 -16t77.5 27t28 81q0 92 -90 211h151q115 -115 115 -232t-66 -176t-161 -59t-148 21v143z" />
<glyph unicode="&#x49a;" horiz-adv-x="1317" d="M68 0l309 1462h239l-149 -698l623 698h276l-657 -727l282 -534h226l-127 -604h-234l88 403h-119l-366 721l-152 -721h-239z" />
<glyph unicode="&#x49b;" horiz-adv-x="1159" d="M47 0l236 1106h233l-110 -520l479 520h270l-514 -549l217 -362h211l-125 -586h-219l88 391h-108l-308 545l-114 -545h-236z" />
<glyph unicode="&#x49c;" horiz-adv-x="1182" d="M68 0l309 1462h239l-149 -698l141 160l72 338h139l-31 -142l314 342h278l-639 -698l336 -764h-256l-182 422l-35 -172h-139l82 395l-123 -90l-117 -555h-239z" />
<glyph unicode="&#x49d;" horiz-adv-x="1087" d="M72 0l233 1106h236l-111 -520l105 108l67 320h131l-31 -144l228 236h266l-504 -518l-12 -62l313 -526h-260l-158 276l-36 -186h-133l75 350l-61 107l-115 -547h-233z" />
<glyph unicode="&#x49e;" horiz-adv-x="1198" d="M70 0l231 1100h-139l43 203h139l35 159h237l-34 -159h161l-43 -203h-161l-74 -344l641 706h283l-623 -674l321 -788h-262l-252 655l-149 -98l-117 -557h-237z" />
<glyph unicode="&#x49f;" horiz-adv-x="1071" d="M47 0l258 1219h-155l36 163h154l37 174h235l-39 -174h283l-37 -163h-280l-66 -316q-40 -177 -80 -301h6l488 504h272l-483 -485l291 -621h-262l-209 471l-136 -96l-77 -375h-236z" />
<glyph unicode="&#x4a0;" horiz-adv-x="1348" d="M176 1257l43 205h563l-147 -698l622 698h277l-660 -727l386 -735h-269l-366 721l-152 -721h-237l266 1257h-326z" />
<glyph unicode="&#x4a1;" horiz-adv-x="1237" d="M76 920l39 186h573l-110 -520l479 520h270l-516 -549l330 -557h-264l-308 545l-116 -545h-234l195 920h-338z" />
<glyph unicode="&#x4a2;" horiz-adv-x="1477" d="M70 0l309 1462h237l-127 -598h566l127 598h237l-268 -1261h223l-129 -604h-231l86 403h-228l140 659h-566l-139 -659h-237z" />
<glyph unicode="&#x4a3;" horiz-adv-x="1288" d="M47 0l238 1106h233l-94 -444h442l95 444h233l-193 -911h185l-125 -586h-225l88 391h-199l100 477h-440l-102 -477h-236z" />
<glyph unicode="&#x4a4;" horiz-adv-x="1561" d="M70 0l309 1462h237l-127 -598h566l127 598h557l-41 -205h-322l-266 -1257h-238l140 659h-566l-139 -659h-237z" />
<glyph unicode="&#x4a5;" horiz-adv-x="1432" d="M47 0l238 1106h233l-94 -444h442l95 444h579l-41 -186h-344l-194 -920h-236l100 477h-440l-102 -477h-236z" />
<glyph unicode="&#x4a6;" horiz-adv-x="2077" d="M70 0l309 1462h1014l-144 -669q64 16 154 16q229 0 365.5 -147t136.5 -387t-82 -417t-231 -273.5t-327 -96.5t-294 49v207q126 -51 254.5 -51t227 71.5t152.5 199t54 291t-83.5 257.5t-238.5 94q-83 0 -129 -10l-125 -596h-239l266 1257h-537l-266 -1257h-237z" />
<glyph unicode="&#x4a7;" horiz-adv-x="1722" d="M47 0l238 1106h878l-104 -485q78 18 137 18q174 0 275.5 -122.5t101.5 -330t-71 -367.5q-141 -321 -492 -321q-129 0 -217 47v215q103 -57 206 -57q154 0 244 127.5t90 343.5q0 130 -53.5 199t-153.5 69q-62 0 -108 -16l-88 -426h-236l195 920h-412l-194 -920h-236z" />
<glyph unicode="&#x4a8;" horiz-adv-x="1485" d="M135 544.5q0 266.5 97.5 484.5t270 337t390.5 119q132 0 248 -47l-70 -193q-83 35 -178 35q-145 0 -262 -92.5t-182.5 -260t-65.5 -357.5t80 -289t225 -99h23l18 2q-76 136 -76 324.5t57 338t160.5 233t241 83.5t216.5 -92t79 -280.5t-85.5 -367t-236.5 -288.5 q37 -18 97.5 -18t134.5 26v-200q-62 -27 -164 -27q-168 0 -270 94q-90 -30 -209 -30q-254 0 -396.5 149t-142.5 415.5zM883 525q0 -173 49 -265q110 81 178 235.5t68 317t-91 162.5q-81 0 -142.5 -138.5t-61.5 -311.5z" />
<glyph unicode="&#x4a9;" horiz-adv-x="1241" d="M94 425.5q0 205.5 73.5 368t203 247.5t299.5 85q113 0 196 -30l-53 -181q-64 23 -152.5 23t-164.5 -61t-120 -183.5t-44 -257t52.5 -203.5t147.5 -69h27l21 2q-62 99 -62 240q0 204 100.5 327t264.5 123q125 0 194.5 -73t69.5 -205t-66.5 -260t-175.5 -195q31 -12 79 -12 t110 20v-174q-66 -23 -148 -23q-130 0 -237 80q-93 -34 -205 -34q-193 0 -301.5 120t-108.5 325.5zM731 436q0 -140 39 -207q74 53 121 152t47 199t-68 100q-62 0 -100.5 -81t-38.5 -163z" />
<glyph unicode="&#x4aa;" horiz-adv-x="1225" d="M135 541q0 264 105.5 487t281.5 339t397.5 116t393.5 -92l-94 -195q-152 82 -300.5 82t-269.5 -89t-193.5 -259.5t-72.5 -362.5q0 -383 326 -383q141 0 329 68v-205q-180 -67 -374 -67q-248 0 -388.5 148.5t-140.5 412.5zM413 -303q44 -16 93.5 -16t77.5 27t28 81 q0 92 -90 211h151q115 -115 115 -232t-66 -176t-161 -59t-148 21v143z" />
<glyph unicode="&#x4ab;" horiz-adv-x="954" d="M94 394q0 202 73.5 371.5t206.5 265t299.5 95.5t299.5 -61l-70 -184q-122 53 -221 53q-150 0 -250 -153.5t-100 -379.5q0 -111 56 -171t162.5 -60t260.5 76v-195q-140 -71 -320.5 -71t-288.5 106t-108 308zM256 -303q44 -16 93.5 -16t77.5 27t28 81q0 92 -90 211h151 q115 -115 115 -232t-66 -176t-161 -59t-148 21v143z" />
<glyph unicode="&#x4ac;" horiz-adv-x="1053" d="M176 1257l45 205h998l-43 -205h-381l-224 -1056h220l-129 -604h-232l86 403h-225l264 1257h-379z" />
<glyph unicode="&#x4ad;" horiz-adv-x="1853" d="M47 0l236 1106h184l-21 -205h9q148 225 360 225t246 -235h8q75 116 170.5 175.5t213.5 59.5t187.5 -77.5t69.5 -221.5q0 -55 -22 -172l-74 -344q-8 -34 -8 -67.5t17 -51.5t52.5 -18t85.5 19l-123 -584h-225l88 383q-137 39 -137 198q0 61 31 200q82 366 78 411 q0 133 -119 133q-108 0 -201.5 -124t-136.5 -329l-101 -481h-235l143 672q17 82 17 127q0 135 -117 135q-110 0 -203.5 -127t-138.5 -338l-98 -469h-236z" />
<glyph unicode="&#x4ae;" horiz-adv-x="1092" d="M186 1462h242l154 -669l432 669h266l-623 -913l-114 -549h-238l119 553z" />
<glyph unicode="&#x4af;" horiz-adv-x="997" d="M100 1106h232l55 -559q8 -78 21 -293h6q51 128 137 285l303 567h250l-619 -1108l-104 -490h-240l105 490z" />
<glyph unicode="&#x4b0;" horiz-adv-x="1092" d="M92 311l43 205h281l8 37l-238 909h242l154 -669l432 669h266l-623 -913l-8 -33h293l-43 -205h-291l-65 -311h-238l66 311h-279z" />
<glyph unicode="&#x4b1;" horiz-adv-x="997" d="M-45 -178l39 178h250l-144 1106h232l55 -559q5 -46 19 -295h6q40 101 139 287l303 567h250l-619 -1106h267l-39 -178h-267l-65 -314h-240l66 314h-252z" />
<glyph unicode="&#x4b2;" horiz-adv-x="1290" d="M-111 0l586 770l-250 692h246l178 -540l402 540h266l-551 -710l199 -551h215l-129 -604h-232l86 403h-121l-192 592l-438 -592h-265z" />
<glyph unicode="&#x4b3;" horiz-adv-x="1135" d="M-57 0l475 569l-232 537h246l143 -373l287 373h275l-461 -549l162 -362h206l-124 -584h-220l88 389h-110l-158 387l-307 -387h-270z" />
<glyph unicode="&#x4b4;" horiz-adv-x="1653" d="M176 1255l43 207h985l-43 -207h-366l-222 -1050h545l266 1257h238l-266 -1253h186l-129 -612h-233l86 403h-977l266 1255h-379z" />
<glyph unicode="&#x4b5;" horiz-adv-x="1370" d="M90 920l39 186h795l-39 -186h-279l-104 -488q-17 -81 -17 -129q0 -133 125 -133q74 0 144 56q149 119 213 411l98 469h235l-170 -795q-8 -34 -8 -66.5t17.5 -51.5t52 -19t86.5 19l-123 -584h-227l90 383q-113 40 -129 198h-4q-154 -210 -355 -210q-134 0 -207 75.5 t-73 214.5q0 86 24 195l97 455h-281z" />
<glyph unicode="&#x4b6;" horiz-adv-x="1417" d="M215 791q0 63 14 127l115 544h238l-111 -528q-12 -48 -12 -98q0 -138 166 -138q149 0 346 76l143 688h240l-269 -1261h222l-129 -602h-234l86 401h-225l123 580q-211 -86 -372.5 -86t-251 77.5t-89.5 219.5z" />
<glyph unicode="&#x4b7;" horiz-adv-x="1210" d="M160 662q0 77 24 188l56 256h235l-61 -289q-19 -76 -19 -134.5t35 -94t98 -35.5q242 0 340 434l27 119h233l-192 -911h184l-125 -584h-225l88 389h-201l123 532h-8q-147 -170 -330 -170q-134 0 -208 79t-74 221z" />
<glyph unicode="&#x4b8;" horiz-adv-x="1343" d="M215 793q0 50 12 112l117 557h238l-113 -540q-10 -46 -10 -99t37.5 -87.5t117.5 -37.5l72 336h141l-69 -323q91 15 213 63l143 688h240l-310 -1462h-239l123 580q-124 -52 -211 -70l-68 -315h-141l65 299q-171 0 -264.5 77t-93.5 222z" />
<glyph unicode="&#x4b9;" horiz-adv-x="1186" d="M160 659q0 75 24 191l56 256h235q-40 -191 -61.5 -293t-18.5 -123q0 -119 105 -135l55 260h133l-55 -246q166 72 244 416l26 121h234l-236 -1106h-235l63 305q4 21 28 115t31 112h-8q-82 -107 -186 -145l-55 -258h-131l49 233q-144 0 -220.5 77t-76.5 220z" />
<glyph unicode="&#x4ba;" horiz-adv-x="1343" d="M68 0l309 1462h239l-122 -581q215 88 375 88t248.5 -78.5t88.5 -222.5q0 -52 -12 -113l-117 -555h-237l114 539q11 47 11 86q0 137 -168 137q-152 0 -344 -76l-146 -686h-239z" />
<glyph unicode="&#x4bb;" horiz-adv-x="1208" d="M47 0l236 1106h237q-85 -404 -121 -531h9q145 168 327 168q135 0 209 -79.5t74 -217.5q0 -88 -55 -328l-25 -118h-236l62 291q10 49 16 127q0 65 -34 101t-99 36q-247 0 -340 -438l-24 -117h-236z" />
<glyph unicode="&#x4bc;" horiz-adv-x="1581" d="M94 873.5q0 106.5 62 187.5h200q-47 -77 -47 -137q0 -82 84 -82h17q81 298 277.5 470.5t465.5 172.5q199 0 309.5 -94.5t110.5 -264.5q0 -245 -209 -364t-637 -119h-104q-5 -27 -5 -82q0 -189 84.5 -283t248.5 -94t382 86v-209q-201 -81 -440.5 -81t-379.5 148.5 t-140 414.5q0 31 8 106q-133 2 -210 60t-77 164.5zM662 842h73q302 0 447 67t145 211q0 78 -50 118t-136 40q-162 0 -292 -117t-187 -319z" />
<glyph unicode="&#x4bd;" horiz-adv-x="1284" d="M49 682q0 95 53 164h183q-43 -63 -43 -112.5t17 -74t58 -24.5h17q58 226 207.5 358.5t330 132.5t269 -72.5t88.5 -205.5q0 -181 -167 -284t-474 -103h-43l-4 -60q0 -237 233 -237q121 0 305 84v-187q-170 -81 -362.5 -81t-303 112t-110.5 309v33l2 31q-256 18 -256 217z M571 633h31q185 0 292 53t107 152q0 54 -35 81t-94 27q-97 0 -180.5 -87.5t-120.5 -225.5z" />
<glyph unicode="&#x4be;" horiz-adv-x="1581" d="M94 873.5q0 106.5 62 187.5h200q-47 -77 -47 -137q0 -82 84 -82h17q84 300 279.5 471.5t463.5 171.5q199 0 309.5 -94.5t110.5 -264.5q0 -249 -212 -366t-652 -117h-86q-5 -27 -5 -82q0 -377 333 -377q164 0 382 86v-209q-165 -69 -348 -79l-80 -385h-237l86 399 q-180 39 -280.5 181t-100.5 366q0 31 8 106q-133 2 -210 60t-77 164.5zM662 842h73q302 0 447 67t145 211q0 78 -50 118t-136 40q-162 0 -292 -117t-187 -319z" />
<glyph unicode="&#x4bf;" horiz-adv-x="1284" d="M49 682q0 95 53 164h183q-43 -63 -43 -112.5t17 -74t58 -24.5h17q58 226 207.5 358.5t330 132.5t269 -72.5t88.5 -205.5q0 -181 -167 -284t-474 -103h-43l-4 -60q0 -111 56 -174t177 -63t305 84v-187q-142 -68 -286 -79l-76 -373h-225l83 389q-130 35 -201 138t-71 265 v33l2 31q-256 18 -256 217zM571 633h31q185 0 292 53t107 152q0 54 -35 81t-94 27q-97 0 -180.5 -87.5t-120.5 -225.5z" />
<glyph unicode="&#x4c0;" horiz-adv-x="608" d="M70 0l311 1462h235l-311 -1462h-235z" />
<glyph unicode="&#x4c1;" horiz-adv-x="1681" d="M-113 0l652 774l-322 688h244l313 -692l148 692h229l-147 -692l587 692h267l-627 -729l334 -733h-252l-320 725l-151 -725h-230l152 723l-602 -723h-275zM686 1856q0 28 8 57h205l-4 -53q0 -133 172 -133q106 0 161.5 44.5t75.5 141.5h217q-39 -174 -153.5 -254 t-304.5 -80q-377 0 -377 277z" />
<glyph unicode="&#x4c2;" horiz-adv-x="1837" d="M-29 -6l37 188q48 -12 90 -12q95 0 170 71t117.5 194t42.5 251q0 248 -170 248q-56 0 -117 -21v191q76 22 158 22q173 0 269 -111t96 -315q0 -27 -5 -65h168l101 471h221l-102 -471h159q55 229 196.5 360t336.5 131q83 0 137 -14l-41 -188q-44 10 -94 10 q-90 0 -163.5 -65.5t-118 -190t-44.5 -254.5q0 -254 168 -254q50 0 117 23v-193q-70 -20 -156 -20q-172 0 -268 108.5t-96 314.5v33l2 33h-170l-101 -469h-219l101 469h-158q-54 -227 -196 -358t-339 -131q-68 0 -129 14zM686 1518q0 28 8 57h205l-4 -53q0 -133 172 -133 q106 0 161.5 44.5t75.5 141.5h217q-39 -174 -153.5 -254t-304.5 -80q-377 0 -377 277z" />
<glyph unicode="&#x4c3;" horiz-adv-x="1352" d="M70 0l309 1462h237l-149 -698l623 698h278l-625 -684q207 -23 322 -160.5t115 -362.5t-80.5 -400t-229.5 -271t-326.5 -96t-295.5 47v209q125 -53 254.5 -53t227 68.5t151 195t53.5 291t-85 253.5t-249 89q-89 0 -176 -27l-117 -561h-237z" />
<glyph unicode="&#x4c4;" horiz-adv-x="1159" d="M47 0l236 1106h233l-110 -520l479 520h270l-479 -510q157 -28 239 -140.5t82 -299.5t-66.5 -338.5t-193.5 -235.5t-280.5 -84t-243.5 47v213q98 -57 207 -57q156 0 248 121.5t92 337.5q0 129 -66.5 203.5t-181.5 74.5q-73 0 -143 -24l-86 -414h-236z" />
<glyph unicode="&#x4c5;" horiz-adv-x="1444" d="M-63 2v201q55 -21 111.5 -21t100.5 31.5t85.5 103.5t94.5 225q100 290 265 920h786l-266 -1253h238l-279 -612h-274l252 403h-220l269 1255h-328q-135 -520 -227.5 -793.5t-195.5 -379t-279 -105.5q-81 0 -133 25z" />
<glyph unicode="&#x4c6;" horiz-adv-x="1223" d="M-78 2v197q36 -15 80.5 -15t81.5 32.5t71.5 99t105 269t120 293t109.5 142.5q117 100 337 100q156 0 295 -43l-188 -893h209l-252 -575h-234l207 391h-205l197 920q-37 8 -89.5 8t-99.5 -32t-87.5 -107t-121 -309.5t-133.5 -323.5q-105 -174 -288 -174q-64 0 -115 20z " />
<glyph unicode="&#x4c7;" horiz-adv-x="1411" d="M70 0l309 1462h237l-127 -598h566l127 598h237l-291 -1380q-65 -307 -218 -450.5t-410 -143.5q-163 0 -279 49v217q138 -51 266 -51q171 0 267.5 98t146.5 330l111 528h-566l-139 -659h-237z" />
<glyph unicode="&#x4c8;" horiz-adv-x="1243" d="M47 0l238 1106h233l-94 -444h442l95 444h233l-231 -1090q-60 -275 -177.5 -396.5t-320.5 -121.5q-138 0 -238 53v211q108 -61 222.5 -61t180.5 81.5t105 266.5l90 428h-440l-102 -477h-236z" />
<glyph unicode="&#x4c9;" horiz-adv-x="1485" d="M70 0l309 1462h237l-127 -598h566l127 598h237l-266 -1253h242l-281 -612h-272l250 403h-220l140 659h-566l-139 -659h-237z" />
<glyph unicode="&#x4ca;" horiz-adv-x="1288" d="M47 0l238 1106h233l-94 -444h442l95 444h233l-195 -922h209l-250 -573h-235l207 389h-205l100 477h-440l-102 -477h-236z" />
<glyph unicode="&#x4cb;" horiz-adv-x="1343" d="M215 793q0 50 12 112l117 557h238l-113 -540q-10 -46 -10 -84q0 -140 166 -140q152 0 344 76l145 688h240l-310 -1462h-225l-86 -403h-231l129 604h217l80 379q-211 -86 -373 -86t-251 78.5t-89 220.5z" />
<glyph unicode="&#x4cc;" horiz-adv-x="1200" d="M182 662q0 36 7 81.5t73 362.5h236l-62 -289q-16 -80 -16 -127q0 -137 131 -137q122 0 209.5 110t132.5 326l25 117h233l-233 -1106h-211l-82 -391h-226l131 586h191q54 252 82 329h-8q-139 -162 -328 -162q-138 0 -211.5 81t-73.5 219z" />
<glyph unicode="&#x4cd;" horiz-adv-x="1831" d="M68 0l309 1462h323l109 -1149h6l606 1149h344l-262 -1253h238l-279 -612h-272l250 403h-207l166 788q65 300 102 426h-6l-643 -1214h-205l-115 1214h-6q-16 -158 -73 -426l-166 -788h-219z" />
<glyph unicode="&#x4ce;" horiz-adv-x="1563" d="M41 0l235 1106h297l95 -678l16 -176q29 79 94 194l377 660h313l-196 -924h209l-248 -571h-238l209 389h-190l180 844l-469 -844h-176l-99 671q-13 83 -16 173l-178 -844h-215z" />
<glyph unicode="&#x4cf;" horiz-adv-x="608" d="M70 0l311 1462h235l-311 -1462h-235z" />
<glyph unicode="&#x4d0;" horiz-adv-x="1210" d="M-121 0l783 1464h274l166 -1464h-234l-41 406h-485l-209 -406h-254zM446 614h365q-51 530 -51 643q-55 -139 -142 -307zM453 1856q0 28 8 57h205l-4 -53q0 -133 172 -133q106 0 161.5 44.5t75.5 141.5h217q-39 -174 -153.5 -254t-304.5 -80q-377 0 -377 277z" />
<glyph unicode="&#x4d1;" horiz-adv-x="1186" d="M94 376q0 193 69.5 369t191.5 278.5t268 102.5q196 0 276 -178h10l62 158h180l-236 -1106h-182l21 176h-6q-158 -196 -349 -196q-141 0 -223 101.5t-82 294.5zM332 373q0 -203 158 -203q77 0 156 77.5t130 207.5t51 284q0 88 -47 141.5t-127.5 53.5t-155.5 -77 t-120 -209.5t-45 -274.5zM381 1518q0 28 8 57h205l-4 -53q0 -133 172 -133q106 0 161.5 44.5t75.5 141.5h217q-39 -174 -153.5 -254t-304.5 -80q-377 0 -377 277z" />
<glyph unicode="&#x4d2;" horiz-adv-x="1210" d="M-121 0l783 1464h274l166 -1464h-234l-41 406h-485l-209 -406h-254zM446 614h365q-51 530 -51 643q-55 -139 -142 -307zM514 1718q0 60 35 98t98 38q105 0 105 -95q0 -65 -35.5 -102t-88.5 -37q-114 0 -114 98zM897 1718q0 60 35 98t98 38q105 0 105 -95 q0 -65 -35.5 -102t-87.5 -37q-115 0 -115 98z" />
<glyph unicode="&#x4d3;" horiz-adv-x="1186" d="M94 376q0 193 69.5 369t191.5 278.5t268 102.5q196 0 276 -178h10l62 158h180l-236 -1106h-182l21 176h-6q-158 -196 -349 -196q-141 0 -223 101.5t-82 294.5zM332 373q0 -203 158 -203q77 0 156 77.5t130 207.5t51 284q0 88 -47 141.5t-127.5 53.5t-155.5 -77 t-120 -209.5t-45 -274.5zM426 1380q0 60 35 98t98 38q105 0 105 -95q0 -65 -35.5 -102t-88.5 -37q-114 0 -114 98zM809 1380q0 60 35 98t98 38q105 0 105 -95q0 -65 -35.5 -102t-87.5 -37q-115 0 -115 98z" />
<glyph unicode="&#x4d4;" horiz-adv-x="1753" d="M-121 0l930 1462h1020l-43 -205h-539l-84 -395h504l-43 -200h-502l-98 -459h539l-43 -203h-777l86 406h-432l-256 -406h-262zM528 614h344l138 643h-82z" />
<glyph unicode="&#x4d5;" horiz-adv-x="1726" d="M94 377q0 191 69 368t188.5 279t260.5 102q174 0 260 -178h9l63 158h148l-25 -117q111 137 311 137q140 0 220.5 -76.5t80.5 -201.5q0 -182 -166.5 -284.5t-474.5 -102.5h-45l-4 -60q0 -117 60.5 -177t180.5 -60t300 84v-189q-175 -79 -344 -79q-222 0 -305 137l-23 -117 h-151l20 176h-8q-85 -106 -165.5 -151t-174.5 -45q-134 0 -209.5 103t-75.5 294zM332 373q0 -203 146 -203q72 0 149.5 80.5t125.5 215.5t48 246q0 222 -152 222q-85 0 -159.5 -80t-116 -211t-41.5 -270zM1022 633h31q187 0 293 53.5t106 149.5q0 58 -34 84t-85 26 q-103 0 -188.5 -86t-122.5 -227z" />
<glyph unicode="&#x4d6;" horiz-adv-x="1077" d="M70 0l309 1462h776l-43 -205h-539l-84 -395h502l-41 -203h-504l-96 -456h539l-43 -203h-776zM408 1856q0 28 8 57h205l-4 -53q0 -133 172 -133q106 0 161.5 44.5t75.5 141.5h217q-39 -174 -153.5 -254t-304.5 -80q-377 0 -377 277z" />
<glyph unicode="&#x4d7;" horiz-adv-x="1075" d="M94 400.5q0 198.5 77.5 369t210 263.5t295 93t252 -72.5t89.5 -205.5q0 -182 -166.5 -284.5t-474.5 -102.5h-43l-2 -31v-29q0 -111 56.5 -174t179.5 -63t300 84v-187q-177 -81 -365 -81t-298.5 111t-110.5 309.5zM325 1518q0 28 8 57h205l-4 -53q0 -133 172 -133 q106 0 161.5 44.5t75.5 141.5h217q-39 -174 -153.5 -254t-304.5 -80q-377 0 -377 277zM362 633h29q188 0 294 53.5t106 151.5q0 51 -32 79.5t-95 28.5q-96 0 -180.5 -86t-121.5 -227z" />
<glyph unicode="&#x4d8;" horiz-adv-x="1352" d="M76 336q0 247 212 365t644 118h104q6 52 6 90q0 177 -85 273t-236 96q-198 0 -402 -86v209q200 84 443.5 84t383.5 -150.5t140 -410t-102 -480.5t-279.5 -342.5t-390.5 -121.5t-325.5 94t-112.5 262zM322 344q0 -72 48.5 -116t139.5 -44q166 0 293 111.5t194 325.5h-129 q-546 0 -546 -277z" />
<glyph unicode="&#x4d9;" horiz-adv-x="1075" d="M55 258q0 182 166.5 284.5t474.5 102.5h43l2 31v29q0 111 -56 174t-178.5 63t-301.5 -84v186q173 82 363 82t300.5 -111t110.5 -309.5t-77.5 -369t-210 -263.5t-295 -93t-252 72.5t-89.5 205.5zM283 268q0 -51 32 -79.5t95 -28.5q97 0 182 88t119 225h-29 q-189 0 -294 -54t-105 -151z" />
<glyph unicode="&#x4da;" horiz-adv-x="1352" d="M76 336q0 247 212 365t644 118h104q6 52 6 90q0 177 -85 273t-236 96q-198 0 -402 -86v209q200 84 443.5 84t383.5 -150.5t140 -410t-102 -480.5t-279.5 -342.5t-390.5 -121.5t-325.5 94t-112.5 262zM322 344q0 -72 48.5 -116t139.5 -44q166 0 293 111.5t194 325.5h-129 q-546 0 -546 -277zM553 1718q0 60 35 98t98 38q105 0 105 -95q0 -65 -35.5 -102t-88.5 -37q-114 0 -114 98zM936 1718q0 60 35 98t98 38q105 0 105 -95q0 -65 -35.5 -102t-87.5 -37q-115 0 -115 98z" />
<glyph unicode="&#x4db;" horiz-adv-x="1075" d="M55 258q0 182 166.5 284.5t474.5 102.5h43l2 31v29q0 111 -56 174t-178.5 63t-301.5 -84v186q173 82 363 82t300.5 -111t110.5 -309.5t-77.5 -369t-210 -263.5t-295 -93t-252 72.5t-89.5 205.5zM283 268q0 -51 32 -79.5t95 -28.5q97 0 182 88t119 225h-29 q-189 0 -294 -54t-105 -151zM349 1380q0 60 35 98t98 38q105 0 105 -95q0 -65 -35.5 -102t-88.5 -37q-114 0 -114 98zM732 1380q0 60 35 98t98 38q105 0 105 -95q0 -65 -35.5 -102t-87.5 -37q-115 0 -115 98z" />
<glyph unicode="&#x4dc;" horiz-adv-x="1681" d="M-113 0l652 774l-322 688h244l313 -692l148 692h229l-147 -692l587 692h267l-627 -729l334 -733h-252l-320 725l-151 -725h-230l152 723l-602 -723h-275zM766 1718q0 60 35 98t98 38q105 0 105 -95q0 -65 -35.5 -102t-88.5 -37q-114 0 -114 98zM1149 1718q0 60 35 98 t98 38q105 0 105 -95q0 -65 -35.5 -102t-87.5 -37q-115 0 -115 98z" />
<glyph unicode="&#x4dd;" horiz-adv-x="1837" d="M-29 -6l37 188q48 -12 90 -12q95 0 170 71t117.5 194t42.5 251q0 248 -170 248q-56 0 -117 -21v191q76 22 158 22q173 0 269 -111t96 -315q0 -27 -5 -65h168l101 471h221l-102 -471h159q55 229 196.5 360t336.5 131q83 0 137 -14l-41 -188q-44 10 -94 10 q-90 0 -163.5 -65.5t-118 -190t-44.5 -254.5q0 -254 168 -254q50 0 117 23v-193q-70 -20 -156 -20q-172 0 -268 108.5t-96 314.5v33l2 33h-170l-101 -469h-219l101 469h-158q-54 -227 -196 -358t-339 -131q-68 0 -129 14zM770 1380q0 60 35 98t98 38q105 0 105 -95 q0 -65 -35.5 -102t-88.5 -37q-114 0 -114 98zM1153 1380q0 60 35 98t98 38q105 0 105 -95q0 -65 -35.5 -102t-87.5 -37q-115 0 -115 98z" />
<glyph unicode="&#x4de;" horiz-adv-x="1155" d="M16 59v213q183 -100 380 -100t293.5 73t96.5 194.5t-83.5 172t-237.5 50.5h-178l41 190h164q190 0 291.5 68t101.5 188q0 90 -55 135t-154 45q-173 0 -357 -121l-90 166q125 82 243 116t278 34t270 -91t110 -246t-104 -258t-289 -128v-4q137 -18 216 -103t79 -217 q0 -214 -162 -335t-429 -121t-425 79zM451 1718q0 60 35 98t98 38q105 0 105 -95q0 -65 -35.5 -102t-88.5 -37q-114 0 -114 98zM834 1718q0 60 35 98t98 38q105 0 105 -95q0 -65 -35.5 -102t-87.5 -37q-115 0 -115 98z" />
<glyph unicode="&#x4df;" horiz-adv-x="983" d="M10 51v203q170 -88 321 -88t222.5 47.5t71.5 125t-46.5 112t-146.5 34.5h-162l39 179h111q146 0 210 40t64 121q0 117 -164 117q-124 0 -297 -74l-61 174q196 84 382 84t280 -70t94 -188q0 -231 -258 -288v-7q188 -48 188 -225.5t-133.5 -272.5t-354 -95t-360.5 71z M323 1380q0 60 35 98t98 38q105 0 105 -95q0 -65 -35.5 -102t-88.5 -37q-114 0 -114 98zM706 1380q0 60 35 98t98 38q105 0 105 -95q0 -65 -35.5 -102t-87.5 -37q-115 0 -115 98z" />
<glyph unicode="&#x4e0;" horiz-adv-x="1106" d="M6 59v213q80 -45 179.5 -72.5t183.5 -27.5q172 0 269 76.5t97 210.5q0 209 -272 209h-158l37 172l446 415h-522l43 207h828l-35 -168l-504 -463q180 -10 281.5 -105t101.5 -261q0 -225 -161.5 -355t-446.5 -130q-221 0 -367 79z" />
<glyph unicode="&#x4e1;" horiz-adv-x="1026" d="M-115 -207q160 -92 335 -92t273.5 96.5t98.5 237.5q0 272 -301 272h-103l35 164l443 447h-512l41 188h792l-33 -160l-489 -483q167 -14 266.5 -118.5t99.5 -273t-72.5 -296.5t-208 -198.5t-325.5 -70.5t-340 76v211z" />
<glyph unicode="&#x4e2;" horiz-adv-x="1487" d="M70 0l309 1462h221q-215 -1013 -248 -1128h8l852 1128h285l-309 -1462h-219q112 532 173.5 827t74.5 322h-7l-854 -1149h-286zM649 1579l37 176h582l-37 -176h-582z" />
<glyph unicode="&#x4e3;" horiz-adv-x="1208" d="M111 274q0 63 12 124.5t24 123.5l123 584h236l-129 -610q-31 -141 -31 -193q0 -133 127 -133q72 0 143 57q150 120 211 410l99 469h233l-233 -1106h-185l21 205h-8q-159 -225 -363 -225q-134 0 -207 76t-73 218zM442 1241l37 176h582l-37 -176h-582z" />
<glyph unicode="&#x4e4;" horiz-adv-x="1487" d="M70 0l309 1462h221q-215 -1013 -248 -1128h8l852 1128h285l-309 -1462h-219q112 532 173.5 827t74.5 322h-7l-854 -1149h-286zM649 1718q0 60 35 98t98 38q105 0 105 -95q0 -65 -35.5 -102t-88.5 -37q-114 0 -114 98zM1032 1718q0 60 35 98t98 38q105 0 105 -95 q0 -65 -35.5 -102t-87.5 -37q-115 0 -115 98z" />
<glyph unicode="&#x4e5;" horiz-adv-x="1208" d="M111 274q0 63 12 124.5t24 123.5l123 584h236l-129 -610q-31 -141 -31 -193q0 -133 127 -133q72 0 143 57q150 120 211 410l99 469h233l-233 -1106h-185l21 205h-8q-159 -225 -363 -225q-134 0 -207 76t-73 218zM432 1380q0 60 35 98t98 38q105 0 105 -95 q0 -65 -35.5 -102t-88.5 -37q-114 0 -114 98zM815 1380q0 60 35 98t98 38q105 0 105 -95q0 -65 -35.5 -102t-87.5 -37q-115 0 -115 98z" />
<glyph unicode="&#x4e6;" horiz-adv-x="1485" d="M135 544.5q0 265.5 98.5 486t269.5 337.5t405 117t373.5 -149t139.5 -421t-95 -490t-261.5 -331.5t-406 -113.5t-381.5 149.5t-142 415zM383 559.5q0 -187.5 81.5 -281.5t223.5 -94t252.5 95.5t172 265t61.5 357.5t-79 283t-220 95t-253 -96t-175.5 -266.5t-63.5 -358z M623 1718q0 60 35 98t98 38q105 0 105 -95q0 -65 -35.5 -102t-88.5 -37q-114 0 -114 98zM1006 1718q0 60 35 98t98 38q105 0 105 -95q0 -65 -35.5 -102t-87.5 -37q-115 0 -115 98z" />
<glyph unicode="&#x4e7;" horiz-adv-x="1174" d="M94 409q0 198 71.5 364t200.5 258.5t311 92.5t292 -116t110 -317t-73 -366.5t-200.5 -254t-306.5 -88.5t-292 114.5t-113 312.5zM332 417q0 -243 196 -243q90 0 162 68t112 190.5t40 249.5q0 248 -189 248q-93 0 -166.5 -71.5t-114 -194t-40.5 -247.5zM404 1380 q0 60 35 98t98 38q105 0 105 -95q0 -65 -35.5 -102t-88.5 -37q-114 0 -114 98zM787 1380q0 60 35 98t98 38q105 0 105 -95q0 -65 -35.5 -102t-87.5 -37q-115 0 -115 98z" />
<glyph unicode="&#x4e8;" horiz-adv-x="1485" d="M135 544.5q0 265.5 98.5 486t269.5 337.5t405 117t373.5 -149t139.5 -421t-95 -490t-261.5 -331.5t-406 -113.5t-381.5 149.5t-142 415zM381 545q0 -171 82 -266t233 -95t272.5 121.5t174.5 339.5h-756q-6 -44 -6 -100zM424 848h747q5 35 5 72q0 169 -80.5 264.5 t-228 95.5t-267.5 -114.5t-176 -317.5z" />
<glyph unicode="&#x4e9;" horiz-adv-x="1174" d="M94 409.5q0 197.5 71.5 363.5t200.5 258.5t310 92.5t292 -113.5t111 -314t-74 -369.5t-201 -257t-304.5 -88t-291.5 115t-114 312.5zM328 401q0 -111 51.5 -171t149 -60t175.5 81.5t113 221.5h-485q-4 -27 -4 -72zM365 651h479v51q0 232 -193 232q-96 0 -172 -76.5 t-114 -206.5z" />
<glyph unicode="&#x4ea;" horiz-adv-x="1485" d="M135 544.5q0 265.5 98.5 486t269.5 337.5t405 117t373.5 -149t139.5 -421t-95 -490t-261.5 -331.5t-406 -113.5t-381.5 149.5t-142 415zM381 545q0 -171 82 -266t233 -95t272.5 121.5t174.5 339.5h-756q-6 -44 -6 -100zM424 848h747q5 35 5 72q0 169 -80.5 264.5 t-228 95.5t-267.5 -114.5t-176 -317.5zM623 1718q0 60 35 98t98 38q105 0 105 -95q0 -65 -35.5 -102t-88.5 -37q-114 0 -114 98zM1006 1718q0 60 35 98t98 38q105 0 105 -95q0 -65 -35.5 -102t-87.5 -37q-115 0 -115 98z" />
<glyph unicode="&#x4eb;" horiz-adv-x="1174" d="M94 409.5q0 197.5 71.5 363.5t200.5 258.5t310 92.5t292 -113.5t111 -314t-74 -369.5t-201 -257t-304.5 -88t-291.5 115t-114 312.5zM328 401q0 -111 51.5 -171t149 -60t175.5 81.5t113 221.5h-485q-4 -27 -4 -72zM365 651h479v51q0 232 -193 232q-96 0 -172 -76.5 t-114 -206.5zM404 1380q0 60 35 98t98 38q105 0 105 -95q0 -65 -35.5 -102t-88.5 -37q-114 0 -114 98zM787 1380q0 60 35 98t98 38q105 0 105 -95q0 -65 -35.5 -102t-87.5 -37q-115 0 -115 98z" />
<glyph unicode="&#x4ec;" horiz-adv-x="1225" d="M23 61v218q182 -95 358 -95q396 0 502 467h-580l41 203h569l2 72q0 170 -79 261t-220.5 91t-326.5 -70l-62 195q200 80 431.5 80t367 -144t135.5 -420t-96 -495.5t-268 -331.5t-401 -112t-373 81zM421 1718q0 60 35 98t98 38q105 0 105 -95q0 -65 -35.5 -102t-88.5 -37 q-114 0 -114 98zM804 1718q0 60 35 98t98 38q105 0 105 -95q0 -65 -35.5 -102t-87.5 -37q-115 0 -115 98z" />
<glyph unicode="&#x4ed;" horiz-adv-x="961" d="M25 31v202q134 -61 256 -61t207.5 74.5t117.5 228.5h-426l35 176h414v33q0 250 -209 250q-94 0 -225 -57l-66 174q159 75 342 75t289 -114.5t106 -327.5t-69 -372t-201 -245.5t-303 -86.5t-268 51zM253 1380q0 60 35 98t98 38q105 0 105 -95q0 -65 -35.5 -102t-88.5 -37 q-114 0 -114 98zM636 1380q0 60 35 98t98 38q105 0 105 -95q0 -65 -35.5 -102t-87.5 -37q-115 0 -115 98z" />
<glyph unicode="&#x4ee;" horiz-adv-x="1198" d="M12 10v217q82 -39 175 -39t159.5 49t147.5 183l-297 1042h239l166 -637q39 -160 49 -221q50 118 97 199l374 659h264l-643 -1067q-107 -178 -183.5 -260t-161.5 -118.5t-196 -36.5t-190 30zM495 1579l37 176h582l-37 -176h-582z" />
<glyph unicode="&#x4ef;" horiz-adv-x="1004" d="M-170 -285q75 -16 137 -16t122 43.5t124 155.5l51 92l-164 1116h232l63 -531q23 -158 23 -356h6q86 215 135 313l293 574h254l-688 -1280q-90 -165 -196 -241.5t-249 -76.5q-76 0 -143 19v188zM318 1241l37 176h582l-37 -176h-582z" />
<glyph unicode="&#x4f0;" horiz-adv-x="1198" d="M12 10v217q82 -39 175 -39t159.5 49t147.5 183l-297 1042h239l166 -637q39 -160 49 -221q50 118 97 199l374 659h264l-643 -1067q-107 -178 -183.5 -260t-161.5 -118.5t-196 -36.5t-190 30zM483 1718q0 60 35 98t98 38q105 0 105 -95q0 -65 -35.5 -102t-88.5 -37 q-114 0 -114 98zM866 1718q0 60 35 98t98 38q105 0 105 -95q0 -65 -35.5 -102t-87.5 -37q-115 0 -115 98z" />
<glyph unicode="&#x4f1;" horiz-adv-x="1004" d="M-170 -285q75 -16 137 -16t122 43.5t124 155.5l51 92l-164 1116h232l63 -531q23 -158 23 -356h6q86 215 135 313l293 574h254l-688 -1280q-90 -165 -196 -241.5t-249 -76.5q-76 0 -143 19v188zM318 1380q0 60 35 98t98 38q105 0 105 -95q0 -65 -35.5 -102t-88.5 -37 q-114 0 -114 98zM701 1380q0 60 35 98t98 38q105 0 105 -95q0 -65 -35.5 -102t-87.5 -37q-115 0 -115 98z" />
<glyph unicode="&#x4f2;" horiz-adv-x="1198" d="M12 10v217q82 -39 175 -39t159.5 49t147.5 183l-297 1042h239l166 -637q39 -160 49 -221q50 118 97 199l374 659h264l-643 -1067q-107 -178 -183.5 -260t-161.5 -118.5t-196 -36.5t-190 30zM504 1579v25q139 156 229 303h240v-19q-39 -51 -152.5 -155.5t-185.5 -153.5 h-131zM873 1579v25q119 133 231 303h238v-19q-52 -64 -158.5 -161t-177.5 -148h-133z" />
<glyph unicode="&#x4f3;" horiz-adv-x="1004" d="M-170 -285q75 -16 137 -16t122 43.5t124 155.5l51 92l-164 1116h232l63 -531q23 -158 23 -356h6q86 215 135 313l293 574h254l-688 -1280q-90 -165 -196 -241.5t-249 -76.5q-76 0 -143 19v188zM312 1241v25q139 156 229 303h240v-19q-39 -51 -152.5 -155.5t-185.5 -153.5 h-131zM681 1241v25q119 133 231 303h238v-19q-52 -64 -158.5 -161t-177.5 -148h-133z" />
<glyph unicode="&#x4f4;" horiz-adv-x="1343" d="M217 793q0 61 16 141l111 528h238l-107 -510q-16 -68 -16 -110q0 -144 160.5 -144t351.5 76l143 688h240l-310 -1462h-239l123 580q-188 -86 -361.5 -86t-261.5 78.5t-88 220.5zM565 1718q0 60 35 98t98 38q105 0 105 -95q0 -65 -35.5 -102t-88.5 -37q-114 0 -114 98z M948 1718q0 60 35 98t98 38q105 0 105 -95q0 -65 -35.5 -102t-87.5 -37q-115 0 -115 98z" />
<glyph unicode="&#x4f5;" horiz-adv-x="1178" d="M160 662q0 79 26 196l54 248h235l-59 -277q-19 -86 -19 -148t37 -95t98 -33q122 0 204 106.5t132 327.5l27 119h233l-235 -1106h-236l64 305q12 60 28.5 117.5t28.5 105.5h-8q-135 -166 -326 -166q-139 0 -211.5 78t-72.5 222zM409 1380q0 60 35 98t98 38q105 0 105 -95 q0 -65 -35.5 -102t-88.5 -37q-114 0 -114 98zM792 1380q0 60 35 98t98 38q105 0 105 -95q0 -65 -35.5 -102t-87.5 -37q-115 0 -115 98z" />
<glyph unicode="&#x4f6;" horiz-adv-x="1001" d="M70 0l309 1462h774l-43 -205h-539l-223 -1056h219l-129 -604h-231l86 403h-223z" />
<glyph unicode="&#x4f7;" horiz-adv-x="866" d="M47 0l236 1106h653l-41 -195h-420l-151 -716h184l-123 -586h-227l88 391h-199z" />
<glyph unicode="&#x4f8;" horiz-adv-x="1679" d="M70 0l309 1462h237l-124 -594h88q227 0 345.5 -96t118.5 -287q0 -233 -153.5 -359t-439.5 -126h-381zM348 199h125q162 0 245 69t83 188t-58.5 165.5t-169.5 46.5h-124zM741 1718q0 60 35 98t98 38q105 0 105 -95q0 -65 -35.5 -102t-88.5 -37q-114 0 -114 98zM1124 1718 q0 60 35 98t98 38q105 0 105 -95q0 -65 -35.5 -102t-87.5 -37q-115 0 -115 98zM1139 0l309 1462h242l-310 -1462h-241z" />
<glyph unicode="&#x4f9;" horiz-adv-x="1561" d="M117 299q0 86 22 190l133 617h236l-100 -467q125 25 210 25q152 0 238 -78t86 -215q0 -179 -121.5 -285t-321.5 -106t-291 84t-91 235zM350 311q0 -155 156 -155q93 0 148 51.5t55 133.5t-43 114t-121 32t-174 -20q-6 -29 -10.5 -50.5t-6.5 -39.5q-4 -36 -4 -66z M596 1380q0 60 35 98t98 38q105 0 105 -95q0 -65 -35.5 -102t-88.5 -37q-114 0 -114 98zM979 1380q0 60 35 98t98 38q105 0 105 -95q0 -65 -35.5 -102t-87.5 -37q-115 0 -115 98zM1042 0l234 1106h235l-235 -1106h-234z" />
<glyph unicode="&#x4fa;" horiz-adv-x="997" d="M41 -229q55 -21 106 -21q104 0 134 141l22 109h-233l131 623h-148l43 200h148l135 639h770l-43 -205h-535l-92 -434h318l-43 -200h-318l-84 -398h219l-75 -364q-33 -158 -108.5 -231.5t-205.5 -73.5q-86 0 -141 24v191z" />
<glyph unicode="&#x4fb;" horiz-adv-x="866" d="M0 453l37 180h145l101 473h655l-43 -195h-420l-59 -278h266l-39 -180h-264l-55 -252h219l-70 -340q-33 -158 -108.5 -231.5t-206.5 -73.5q-90 0 -140 24v191q52 -21 107 -21q101 0 133 141l23 109h-234l98 453h-145z" />
<glyph unicode="&#x4fc;" horiz-adv-x="1229" d="M-111 0l586 770l-250 692h246l178 -540l402 540h266l-551 -710l190 -527h220l-76 -364q-33 -158 -108.5 -231.5t-205.5 -73.5q-86 0 -141 24v191q55 -21 107 -21q103 0 133 141l22 109h-123l-192 592l-438 -592h-265z" />
<glyph unicode="&#x4fd;" horiz-adv-x="1094" d="M-88 0l477 569l-231 537h245l144 -373l287 373h274l-461 -549l160 -356h217l-70 -340q-33 -157 -108 -231t-205 -74q-89 0 -141 24v191q55 -21 106 -21q105 0 133 141l23 109h-113l-160 387l-305 -387h-272z" />
<glyph unicode="&#x4fe;" horiz-adv-x="1151" d="M-111 0l502 659h-254l43 203h262l-217 600h246l178 -540l402 540h266l-467 -600h258l-43 -203h-266l241 -659h-256l-192 592l-438 -592h-265z" />
<glyph unicode="&#x4ff;" horiz-adv-x="1032" d="M-86 0l399 477h-225l39 176h227l-196 453h245l144 -373l287 373h274l-379 -453h229l-38 -176h-238l213 -477h-246l-160 387l-305 -387h-270z" />
<glyph unicode="&#x2000;" horiz-adv-x="1072" />
<glyph unicode="&#x2001;" horiz-adv-x="2144" />
<glyph unicode="&#x2002;" horiz-adv-x="1072" />
<glyph unicode="&#x2003;" horiz-adv-x="2144" />
<glyph unicode="&#x2004;" horiz-adv-x="714" />
<glyph unicode="&#x2005;" horiz-adv-x="536" />
<glyph unicode="&#x2006;" horiz-adv-x="357" />
<glyph unicode="&#x2007;" horiz-adv-x="357" />
<glyph unicode="&#x2008;" horiz-adv-x="268" />
<glyph unicode="&#x2009;" horiz-adv-x="428" />
<glyph unicode="&#x200a;" horiz-adv-x="119" />
<glyph unicode="&#x2010;" horiz-adv-x="649" d="M47 446l45 203h502l-45 -203h-502z" />
<glyph unicode="&#x2011;" horiz-adv-x="649" d="M47 446l45 203h502l-45 -203h-502z" />
<glyph unicode="&#x2012;" horiz-adv-x="649" d="M47 446l45 203h502l-45 -203h-502z" />
<glyph unicode="&#x2013;" horiz-adv-x="983" d="M47 453l43 194h838l-43 -194h-838z" />
<glyph unicode="&#x2014;" horiz-adv-x="1966" d="M47 453l43 194h1821l-43 -194h-1821z" />
<glyph unicode="&#x2018;" horiz-adv-x="393" d="M119 983q91 203 266 479h176q-122 -286 -199 -501h-237z" />
<glyph unicode="&#x2019;" horiz-adv-x="393" d="M115 961q114 252 198 501h238l8 -22q-97 -217 -266 -479h-178z" />
<glyph unicode="&#x201a;" horiz-adv-x="530" d="M-102 -264q105 238 200 502h236l8 -23q-108 -233 -266 -479h-178z" />
<glyph unicode="&#x201c;" horiz-adv-x="803" d="M119 983q91 203 266 479h176q-122 -286 -199 -501h-237zM526 983q84 190 267 479h176q-122 -286 -199 -501h-235z" />
<glyph unicode="&#x201d;" horiz-adv-x="803" d="M115 961q114 252 198 501h238l8 -22q-97 -217 -266 -479h-178zM522 961q115 258 199 501h237l9 -22q-98 -220 -269 -479h-176z" />
<glyph unicode="&#x201e;" horiz-adv-x="938" d="M-102 -264q105 238 200 502h236l8 -23q-108 -233 -266 -479h-178zM307 -264q120 281 199 502h235l9 -23q-92 -206 -267 -479h-176z" />
<glyph unicode="&#x2022;" horiz-adv-x="756" d="M152 684q0 156 83.5 252t223.5 96q100 0 158.5 -54.5t58.5 -189.5t-82 -231t-227 -96q-102 0 -158.5 57.5t-56.5 165.5z" />
<glyph unicode="&#x2026;" horiz-adv-x="1634" d="M293 110q0 67 47 116.5t117 49.5q137 0 137 -124q0 -78 -47.5 -129.5t-124.5 -51.5q-129 0 -129 139zM594 110q0 67 47 116.5t117 49.5q137 0 137 -124q0 -78 -47.5 -129.5t-124.5 -51.5q-129 0 -129 139zM834 110q0 67 47 116.5t117 49.5q137 0 137 -124 q0 -78 -47.5 -129.5t-124.5 -51.5q-129 0 -129 139z" />
<glyph unicode="&#x202f;" horiz-adv-x="428" />
<glyph unicode="&#x2039;" horiz-adv-x="621" d="M80 549v24l395 422l135 -118l-288 -334l153 -367l-178 -76z" />
<glyph unicode="&#x203a;" horiz-adv-x="621" d="M10 211l289 334l-154 366l179 76l217 -448v-25l-396 -422z" />
<glyph unicode="&#x205f;" horiz-adv-x="536" />
<glyph unicode="&#x20ac;" d="M51 492l33 155h139q15 95 27 139h-137l32 154h148q92 260 255.5 401.5t371.5 141.5q177 0 321 -99l-102 -180q-124 78 -234 78t-206.5 -87t-161.5 -255h387l-33 -154h-402q-18 -67 -28 -139h340l-33 -155h-319q0 -161 60.5 -234.5t188 -73.5t265.5 60v-203 q-129 -61 -306 -61q-216 0 -330 130t-114 382h-162z" />
<glyph unicode="&#x2122;" horiz-adv-x="1534" d="M113 1335v127h540v-127h-198v-594h-146v594h-196zM709 741v721h215l170 -534l182 534h205v-721h-146v418l4 121h-6l-184 -539h-119l-178 539h-6l4 -115v-424h-141z" />
<glyph unicode="&#xe000;" horiz-adv-x="1105" d="M0 0v1105h1105v-1105h-1105z" />
</font>
</defs>
</svg>
